<svg width="210" height="211" viewBox="0 0 210 211" fill="none" xmlns="http://www.w3.org/2000/svg">
<path d="M74.9382 32.9013C74.8036 36.5664 73.7484 39.9969 72.0157 42.9715C72.0722 43.0019 72.12 43.041 72.1764 43.0714C72.0896 43.0887 72.0157 43.1018 71.9376 43.1191C68.8544 43.6446 65.8972 44.6911 63.1745 46.2153C61.3463 41.9423 58.5454 38.0949 54.9195 35.0031C52.5441 32.9708 49.8127 31.2772 46.7773 30.0266C45.0186 29.2971 43.2382 28.7499 41.4404 28.3634C45.1315 25.2629 49.2091 22.6705 53.5472 20.6512C56.8301 19.1183 60.2781 17.9155 63.8172 17.06C65.1807 16.7343 66.5442 16.452 67.9338 16.2393C68.3594 16.6214 68.7763 17.0252 69.1714 17.4551C73.0883 21.6717 75.1423 27.1606 74.9382 32.91V32.9013Z" fill="#FCE6ED"/>
<path d="M50.294 79.5308C50.1333 82.4967 48.9174 84.72 47.3498 86.3571C44.9007 88.9105 41.5787 90.0612 40.0327 90.4825C33.176 92.3497 27.5785 90.4477 25.3335 87.3559C24.9687 86.8478 24.6865 86.318 24.5171 85.7666C23.5097 82.501 22.8409 79.153 22.4718 75.7876C22.246 73.8074 22.1374 71.7968 22.1505 69.8036C27.4092 67.3892 33.6146 67.0766 39.3814 69.4519C42.7642 70.8589 45.6085 73.0388 47.7884 75.6964C48.7611 76.8819 49.5949 78.1716 50.294 79.5264V79.5308Z" fill="#FCE6ED"/>
<path d="M55.7442 52.3381C55.3925 52.7637 55.0451 53.1849 54.7194 53.6322C53.3993 55.3996 52.2659 57.3537 51.3844 59.4945C50.9675 60.515 50.6158 61.5398 50.3248 62.595C50.0947 63.4071 49.9079 64.2148 49.7646 65.0442C47.6846 63.4592 45.3788 62.113 42.8601 61.0665C36.3421 58.3698 29.4158 58.1049 23.0889 59.8332C23.7706 56.1725 24.8389 52.577 26.2719 49.0943C26.4847 48.5775 26.7105 48.0651 26.945 47.5571C28.5213 44.057 30.4276 40.8002 32.6119 37.8126C32.8464 37.4912 33.0809 37.1742 33.3284 36.8529C36.62 36.5793 40.0332 37.0526 43.3031 38.4118C49.5866 41.013 53.9855 46.263 55.7442 52.3381Z" fill="#EF689B"/>
<path d="M105.375 23.8515C105.409 24.4725 105.418 25.1065 105.401 25.7448C105.192 31.4943 102.76 36.8181 98.5438 40.7437C96.6549 42.4981 94.5053 43.8746 92.1908 44.8517C91.2051 45.2642 90.1933 45.5943 89.1554 45.8591C88.4215 45.4727 87.6573 45.1166 86.8756 44.7866C85.5555 44.2437 84.2267 43.8095 82.8849 43.4882C82.5722 43.4057 82.2509 43.3362 81.9339 43.2754C82.2596 42.4243 82.5549 41.5644 82.8154 40.6873C83.5102 38.3076 83.9227 35.8107 84.0183 33.2312C84.0183 33.0358 84.0183 32.8361 84.0183 32.6494C84.1312 26.5308 82.4376 20.6511 79.1895 15.6008C83.888 15.831 88.5996 16.6778 93.2504 18.1803C94.6009 18.6232 95.9384 19.1226 97.2715 19.6741C99.2299 20.4774 101.11 21.398 102.925 22.3968C103.759 22.8658 104.576 23.3478 105.379 23.8559L105.375 23.8515Z" fill="#EF689B"/>
<path d="M97.5706 161.039L89.5848 180.337C86.1065 180.667 82.563 180.155 79.2714 178.795C77.0437 177.875 74.9376 176.563 73.0573 174.857C70.3867 172.438 68.4109 169.455 67.2384 166.154C67.0343 165.607 66.8737 165.056 66.7217 164.483L74.2298 146.348C76.2143 149.662 78.8328 152.589 81.9985 154.99C84.1306 156.597 86.4017 157.886 88.764 158.868C91.6084 160.04 94.5699 160.761 97.5662 161.039H97.5706Z" fill="#FCE6ED"/>
<path d="M85.8105 189.452L81.6374 199.522C81.3248 200.273 80.3651 200.764 78.7801 200.968C72.3749 201.815 61.4536 197.294 57.5237 192.179C56.5597 190.906 56.2166 189.873 56.5293 189.122L62.0225 175.86C63.4034 177.931 65.0622 179.859 66.9599 181.574C69.6435 184.006 72.6312 185.873 75.8012 187.18C79.0059 188.509 82.3974 189.269 85.8105 189.452Z" fill="#EF689B"/>
<path d="M186.539 56.9586C187.59 55.2693 188.597 53.4846 189.54 51.6304C192.171 46.541 193.965 40.7481 194.877 34.4559C195.793 28.4285 195.819 22.5445 194.937 16.9384C194.338 13.0909 193.565 10.0686 192.593 7.71063C190.651 2.92957 187.842 0.350147 184.22 0.0418319C178.636 -0.548744 176.491 5.20937 174.263 11.2758C171.401 18.7796 166.824 24.9719 158.899 32.0502C153.584 36.9354 145.941 42.129 140.374 45.9287L139.823 46.2978C138.607 47.1185 137.426 47.961 136.245 48.7904C135.793 47.4876 135.298 46.2023 134.755 44.9256C134.72 44.9169 134.686 44.8865 134.655 44.8648C134.655 44.83 134.673 44.7866 134.673 44.7432C130.495 35.0421 123.903 26.3919 115.323 19.7393C114.841 19.3615 114.341 18.9793 113.838 18.6233C110.546 16.2262 106.981 14.1027 103.164 12.3484C102.365 11.9749 101.557 11.6145 100.741 11.2715C100.628 11.2237 100.506 11.1846 100.393 11.1368C91.2914 7.43705 81.8292 6.00404 72.6275 6.58159C71.9414 6.61633 71.2509 6.67712 70.5648 6.7466C66.0964 7.17216 61.7192 8.06237 57.4766 9.40419C56.3215 9.76028 55.1838 10.1598 54.0548 10.5853C46.6899 13.3776 39.8592 17.5203 33.9535 22.8398C32.0298 24.5768 30.2016 26.4354 28.4906 28.4112C26.5018 30.717 24.6606 33.1705 22.9931 35.789C21.1736 38.6551 19.5539 41.7122 18.1816 44.9386C18.0861 45.1644 17.9862 45.3859 17.8907 45.6117C15.8324 50.5751 14.4428 55.7427 13.7089 61.0057C13.5395 62.1522 13.4049 63.3116 13.3137 64.4754C12.9576 68.6572 13.0054 72.8607 13.4787 77.0425C13.6047 78.1976 13.7784 79.3483 13.9694 80.5121C14.4167 83.1827 15.042 85.8316 15.8497 88.4414V88.4719C17.4217 93.4613 21.369 97.2132 26.9534 99.0501C31.6824 100.605 37.1843 100.674 42.43 99.2412C45.9604 98.2728 49.3302 96.5966 52.1224 94.2647C56.7688 90.3912 59.8259 84.72 59.3656 77.4724C59.3569 77.3204 59.3395 77.1684 59.3309 77.0034C59.2353 75.857 59.0529 74.6628 58.7663 73.4209C58.0629 69.9078 58.4059 66.2862 59.7955 62.9599C59.9301 62.6255 60.0778 62.2998 60.2341 61.9828C61.5064 59.3513 63.3607 57.1496 65.5623 55.4865C67.1734 54.2619 68.9625 53.3239 70.8688 52.7073C72.7838 52.0776 74.8161 51.765 76.8571 51.8084C79.05 51.8431 81.2647 52.2861 83.4142 53.1676C84.2436 53.5193 85.0296 53.9145 85.7765 54.3574C86.3193 54.6788 86.8317 55.0348 87.3311 55.404C89.0768 56.711 90.5445 58.3221 91.6996 60.1112C92.6072 61.5399 93.328 63.0901 93.8057 64.7099C94.9521 68.5573 94.8522 72.8042 93.2021 76.7906L48.1447 185.648C46.5423 189.499 47.3196 193.785 50.3333 197.711C53.2861 201.55 58.2887 204.933 63.7645 207.191C69.2317 209.462 75.1635 210.612 79.9706 209.974C84.8646 209.331 88.4471 206.848 90.0451 202.987L112.292 149.227C115.453 151.238 119.114 152.445 123.252 152.827C126.179 153.088 128.932 153.149 131.477 153.014C135.541 152.797 139.106 152.08 142.137 150.856C150.058 147.616 150.753 142.358 150.384 139.322C153.271 139.027 155.803 138.879 158.131 138.766C163.615 138.497 167.971 138.254 172.4 136.057C179.943 132.509 179.913 127.037 179.556 124.888C179.135 122.096 178.136 119.62 176.599 117.467C177.32 117.197 178.028 116.932 178.714 116.654C191.351 111.435 197.083 104.183 195.732 95.0681C195.385 92.6971 194.091 89.5488 190.07 87.0475C194.72 82.692 197.061 76.8731 196.913 69.8166C196.922 69.7602 196.918 69.7167 196.913 69.6646C196.744 66.4642 195.667 63.7415 193.743 61.6093C192.249 59.9245 189.865 57.8835 186.539 56.9759V56.9586ZM47.3543 86.3571C44.9052 88.9104 41.5832 90.0612 40.0373 90.4824C33.1805 92.3497 27.5831 90.4477 25.338 87.3558C24.9733 86.8478 24.691 86.318 24.5216 85.7665C23.5142 82.501 22.8454 79.1529 22.4763 75.7875C22.2505 73.8073 22.142 71.7968 22.155 69.8036C27.4137 67.3892 33.6191 67.0765 39.3859 69.4518C42.7687 70.8588 45.613 73.0387 47.7929 75.6963C48.7656 76.8818 49.5994 78.1715 50.2985 79.5264C50.1379 82.4923 48.922 84.7156 47.3543 86.3527V86.3571ZM54.7192 53.6322C53.399 55.3996 52.2657 57.3537 51.3841 59.4946C50.9673 60.515 50.6155 61.5399 50.3246 62.5951C50.0944 63.4071 49.9077 64.2148 49.7644 65.0442C47.6844 63.4592 45.3785 62.1131 42.8599 61.0665C36.3418 58.3699 29.4156 58.105 23.0886 59.8333C23.7704 56.1726 24.8386 52.577 26.2716 49.0943C26.4844 48.5776 26.7102 48.0652 26.9447 47.5571C28.521 44.0571 30.4274 40.8002 32.6117 37.8126C32.8461 37.4913 33.0806 37.1743 33.3282 36.8529C36.6197 36.5794 40.0329 37.0527 43.3028 38.4119C49.5864 41.013 53.9853 46.2631 55.744 52.3382C55.3922 52.7637 55.0448 53.185 54.7192 53.6322ZM74.9377 32.9056C74.8031 36.5707 73.7479 40.0012 72.0152 42.9758C72.0717 43.0062 72.1194 43.0453 72.1759 43.0757C72.089 43.0931 72.0152 43.1061 71.937 43.1235C68.8539 43.6489 65.8967 44.6954 63.1739 46.2196C61.3458 41.9466 58.5449 38.0992 54.9189 35.0074C52.5436 32.9751 49.8122 31.2815 46.7768 30.0309C45.0181 29.3014 43.2377 28.7542 41.4399 28.3678C45.131 25.2672 49.2086 22.6748 53.5467 20.6555C56.8296 19.1226 60.2775 17.9198 63.8166 17.0643C65.1802 16.7386 66.5437 16.4564 67.9333 16.2436C68.3588 16.6257 68.7757 17.0296 69.1709 17.4595C73.0878 21.676 75.1418 27.1649 74.9377 32.9143V32.9056ZM108.262 43.4926C111.171 39.6886 113.125 35.2723 113.976 30.5477C117.346 33.7611 120.256 37.374 122.666 41.2779C124.681 44.5565 126.357 48.0261 127.642 51.6347C127.977 52.5814 128.281 53.541 128.563 54.5094C128.723 55.0262 128.871 55.5342 129.006 56.051C126.518 58.6608 123.378 60.6323 119.869 61.7396C117.477 62.5039 114.901 62.8469 112.244 62.7036C108.64 62.5126 105.222 61.4356 102.23 59.6118C101.948 59.4424 101.666 59.2601 101.379 59.0777C100.354 56.7024 98.9993 54.4834 97.3361 52.4815C100.007 51.1787 102.486 49.4678 104.718 47.3878C106.021 46.1806 107.202 44.8778 108.257 43.4839L108.262 43.4926ZM130.717 66.4686C130.934 69.9165 130.825 73.4165 130.378 76.9252C129.935 80.2993 129.162 83.6821 128.059 87.0171C127.655 88.2417 127.204 89.4619 126.7 90.6605L125.944 92.506C123.691 93.153 121.307 93.444 118.844 93.3007C115.44 93.1226 112.222 92.1412 109.343 90.4998C108.01 89.7268 106.733 88.8323 105.582 87.7771C105.018 87.269 104.488 86.7392 103.976 86.1747C103.368 85.4973 102.829 84.7677 102.304 84.0295C102.017 83.617 101.735 83.2044 101.47 82.7702C101.288 82.4619 101.11 82.1449 100.936 81.8235L101.587 80.2646C102.695 77.5896 103.333 74.8365 103.563 72.0964C103.615 71.4711 103.637 70.8458 103.65 70.2291C104.901 70.646 106.186 70.9804 107.493 71.2409C108.414 71.4233 109.339 71.5492 110.277 71.6404C110.772 71.6925 111.258 71.7533 111.762 71.7794C113.256 71.8532 114.732 71.8185 116.182 71.6969C116.838 71.6274 117.481 71.5623 118.132 71.4624C120.295 71.128 122.388 70.5548 124.394 69.7819C126.639 68.9177 128.758 67.806 130.721 66.4642L130.717 66.4686ZM92.1903 44.8561C91.2046 45.2686 90.1928 45.5987 89.1549 45.8636C88.4211 45.4771 87.6568 45.121 86.8751 44.791C85.555 44.2482 84.2262 43.8139 82.8844 43.4926C82.5717 43.4101 82.2504 43.3406 81.9334 43.2798C82.2591 42.4287 82.5544 41.5689 82.8149 40.6917C83.5097 38.312 83.9223 35.8151 84.0178 33.2357C84.0178 33.0402 84.0178 32.8405 84.0178 32.6538C84.1307 26.5352 82.4371 20.6555 79.189 15.6052C83.8875 15.8354 88.5991 16.6822 93.2499 18.1847C94.6004 18.6276 95.9379 19.127 97.271 19.6785C99.2294 20.4818 101.11 21.4024 102.925 22.4012C103.759 22.8702 104.575 23.3522 105.378 23.8603C105.413 24.4812 105.422 25.1152 105.404 25.7536C105.196 31.503 102.764 36.8269 98.5477 40.7525C96.6587 42.5068 94.5092 43.8834 92.1947 44.8604L92.1903 44.8561ZM81.6381 199.526C81.3255 200.277 80.3658 200.768 78.7808 200.972C72.3756 201.819 61.4543 197.298 57.5244 192.183C56.5604 190.911 56.2173 189.877 56.53 189.126L62.0232 175.864C63.4041 177.935 65.0629 179.863 66.9606 181.579C69.6442 184.01 72.6318 185.878 75.8018 187.185C79.0066 188.514 82.398 189.274 85.8112 189.456L81.6381 199.526ZM89.5848 180.341C86.1065 180.671 82.5631 180.159 79.2715 178.8C77.0438 177.879 74.9377 176.568 73.0574 174.861C70.3868 172.442 68.411 169.459 67.2385 166.159C67.0344 165.611 66.8737 165.06 66.7217 164.487L74.2299 146.353C76.2144 149.666 78.8329 152.593 81.9985 154.994C84.1307 156.601 86.4018 157.891 88.7641 158.872C91.6084 160.044 94.57 160.765 97.5663 161.043L89.5805 180.341H89.5848ZM107.658 136.652L105.387 142.149L101.275 152.085C98.2263 152.202 95.1432 151.676 92.2424 150.474C90.5836 149.783 88.9812 148.884 87.4874 147.747C84.3044 145.341 81.9117 142.175 80.47 138.549C79.9272 137.164 79.519 135.718 79.2628 134.211L86.1022 117.679C88.0563 120.828 90.5923 123.628 93.6407 125.939C95.7642 127.545 98.057 128.848 100.454 129.847C100.801 129.995 101.158 130.103 101.514 130.229C103.055 130.802 104.645 131.254 106.26 131.562C107.354 131.779 108.462 131.949 109.573 132.044L107.663 136.647L107.658 136.652ZM109.795 122.934C108.24 122.764 106.712 122.421 105.226 121.918C103.611 121.379 102.048 120.654 100.584 119.712C100.085 119.399 99.5986 119.065 99.1165 118.695C96.2418 116.529 94.0011 113.732 92.5377 110.549C91.8559 109.051 91.3435 107.457 91.0048 105.811L96.815 91.7895C96.9453 91.9371 97.0712 92.0935 97.2015 92.2411C97.9701 93.0966 98.7778 93.8999 99.6203 94.6512C101.049 95.9322 102.573 97.0569 104.193 98.034C105.504 98.8286 106.859 99.5234 108.27 100.105C108.427 100.175 108.596 100.218 108.752 100.275C111.775 101.473 115.001 102.198 118.341 102.381C119.526 102.45 120.699 102.442 121.858 102.368L113.312 123.034C112.131 123.094 110.958 123.06 109.803 122.938L109.795 122.934ZM156.62 96.0625C157.162 98.4769 159.577 99.9881 161.978 99.4366C170.116 97.591 176.169 95.4806 180.421 93.0184C181.754 93.2008 183.043 93.5569 184.22 94.0649C185.849 94.8118 186.735 95.5848 186.852 96.3795C187.095 98.0644 187.851 103.171 175.301 108.343C172.717 109.403 169.738 110.393 166.464 111.279C166.073 111.352 165.695 111.452 165.304 111.548C164.992 111.63 164.666 111.704 164.319 111.774C161.548 112.373 158.235 113.107 157.306 113.398C155.299 114.01 154.053 115.903 154.162 117.901C154.179 118.248 154.244 118.609 154.348 118.965C155.056 121.327 157.557 122.669 159.92 121.974C160.276 121.865 162.278 121.388 166.186 120.545C166.403 120.502 166.62 120.458 166.837 120.402C167.007 120.524 167.189 120.658 167.371 120.789C169.278 122.2 170.32 123.937 170.676 126.251C170.689 126.26 170.693 126.382 170.693 126.395C170.693 126.408 170.411 127.076 168.531 127.945C168.501 127.967 168.466 127.98 168.422 127.993C165.648 129.378 162.469 129.56 157.631 129.808C154.157 129.995 149.811 130.225 144.587 131.019C144.313 131.054 144.031 131.08 143.77 131.106C143.41 131.145 143.062 131.176 142.745 131.228C140.344 131.388 139.185 131.384 138.329 131.375H137.869C137.834 131.367 137.812 131.371 137.782 131.375L137.465 131.393C135.142 131.562 133.305 133.508 133.313 135.874C133.313 138.349 135.328 140.347 137.804 140.343H137.977C138.524 140.36 139.623 140.386 141.438 140.304C141.451 140.334 141.456 140.377 141.469 140.421C141.525 141.237 140.023 142.032 138.746 142.549C135.22 143.964 130.126 144.433 124.029 143.89C120.694 143.586 117.998 142.536 115.809 140.703L135.077 94.1344C136.301 91.1902 137.278 88.2026 138.029 85.1933C138.238 84.3508 138.433 83.5084 138.607 82.666C139.988 75.9221 140.24 69.1305 139.458 62.5126C139.293 61.0969 139.076 59.6943 138.815 58.3091C138.798 58.2222 138.772 58.1354 138.759 58.0485C140.739 56.5938 142.767 55.1391 144.86 53.7234L145.42 53.3413C151.222 49.394 159.16 43.9789 164.914 38.6985C171.28 33.0142 178.362 25.7015 182.653 14.4197C182.931 13.6728 183.512 12.0748 184.107 10.6722C184.168 10.8112 184.22 10.9501 184.285 11.1021C184.989 12.8043 185.592 15.2405 186.083 18.3323C186.817 23.0135 186.782 27.9769 185.996 33.1228C185.219 38.477 183.738 43.3189 181.563 47.5311C179.817 50.9442 177.902 54.023 175.835 56.7414C175.587 57.0497 175.344 57.3711 175.092 57.6447C175.053 57.6924 175.01 57.7489 174.971 57.7923C174.55 58.296 174.05 58.8258 173.312 59.5336C171.228 61.4964 168.739 63.3463 165.917 65.0659C163.806 66.3383 163.129 69.0827 164.38 71.1932C165.643 73.3036 168.388 74.0114 170.511 72.7608C173.742 70.8675 176.599 68.8005 179.001 66.6119C183.599 64.319 185.553 65.878 187.056 67.5629C187.416 67.9711 187.846 68.6268 187.946 70.0554C188.05 76.9296 184.798 81.4414 177.685 84.2379H177.663C177.663 84.2379 177.654 84.251 177.641 84.251H177.628L177.62 84.264H177.607C177.607 84.264 177.607 84.264 177.598 84.264V84.277H177.576H177.563C177.563 84.2901 177.555 84.2901 177.555 84.2901H177.542L177.533 84.3031H177.511C177.511 84.3031 177.511 84.3161 177.502 84.3161H177.489C177.489 84.3161 177.468 84.3291 177.459 84.3291C177.45 84.3291 177.45 84.3422 177.437 84.3422C177.424 84.3422 177.416 84.3552 177.416 84.3552C177.233 84.442 177.055 84.5376 176.881 84.6461C174.497 86.1877 169.638 88.4849 160.02 90.6735C160.011 90.6865 159.998 90.6865 159.989 90.6865C157.835 91.1729 156.398 93.1574 156.511 95.2982C156.524 95.5501 156.559 95.7976 156.62 96.0581V96.0625Z" fill="#1C2149"/>
<path d="M109.574 132.04L107.663 136.643L105.392 142.14L101.28 152.076C98.2311 152.193 95.148 151.668 92.2472 150.465C90.5884 149.775 88.986 148.876 87.4922 147.738C84.3092 145.332 81.9165 142.167 80.4748 138.541C79.932 137.155 79.5238 135.709 79.2676 134.202L86.107 117.671C88.0611 120.819 90.5971 123.62 93.6455 125.93C95.769 127.537 98.0618 128.839 100.459 129.838C100.806 129.986 101.162 130.094 101.518 130.22C103.06 130.794 104.649 131.245 106.265 131.554C107.359 131.771 108.466 131.94 109.578 132.036L109.574 132.04Z" fill="#EF689B"/>
<path d="M129.009 56.0511C126.521 58.6609 123.382 60.6324 119.873 61.7397C117.48 62.504 114.905 62.847 112.248 62.7037C108.643 62.5127 105.226 61.4357 102.234 59.6119C101.952 59.4425 101.669 59.2601 101.383 59.0778C100.358 56.7024 99.003 54.4834 97.3398 52.4816C100.01 51.1788 102.49 49.4679 104.722 47.3878C106.025 46.1806 107.206 44.8779 108.261 43.484C111.171 39.68 113.125 35.2637 113.976 30.5391C117.346 33.7525 120.255 37.3654 122.665 41.2693C124.68 44.5479 126.356 48.0175 127.642 51.6261C127.976 52.5727 128.28 53.5324 128.562 54.5008C128.723 55.0176 128.871 55.5256 129.005 56.0424L129.009 56.0511Z" fill="#FCE6ED"/>
<path d="M130.717 66.4643C130.934 69.9122 130.826 73.4123 130.378 76.921C129.936 80.2951 129.163 83.6778 128.06 87.0129C127.656 88.2374 127.204 89.4577 126.7 90.6562L125.945 92.5017C123.691 93.1488 121.307 93.4397 118.845 93.2964C115.44 93.1184 112.223 92.137 109.344 90.4955C108.01 89.7226 106.734 88.828 105.583 87.7728C105.018 87.2647 104.489 86.7349 103.976 86.1704C103.368 85.493 102.83 84.7635 102.304 84.0252C102.018 83.6127 101.736 83.2002 101.471 82.7659C101.288 82.4576 101.11 82.1406 100.937 81.8193L101.588 80.2603C102.695 77.5854 103.334 74.8322 103.564 72.0921C103.616 71.4668 103.638 70.8415 103.651 70.2249C104.901 70.6418 106.187 70.9761 107.494 71.2367C108.414 71.4191 109.339 71.545 110.277 71.6362C110.772 71.6883 111.259 71.7491 111.762 71.7751C113.256 71.849 114.733 71.8142 116.183 71.6926C116.839 71.6232 117.481 71.558 118.133 71.4581C120.295 71.1238 122.388 70.5506 124.395 69.7776C126.64 68.9135 128.759 67.8018 130.722 66.46L130.717 66.4643Z" fill="#EF689B"/>
<path d="M121.854 102.359L113.308 123.025C112.127 123.086 110.955 123.051 109.8 122.929C108.245 122.76 106.716 122.417 105.231 121.913C103.616 121.375 102.053 120.65 100.589 119.707C100.09 119.395 99.6035 119.06 99.1215 118.691C96.2468 116.524 94.0061 113.728 92.5427 110.545C91.8609 109.046 91.3485 107.453 91.0098 105.807L96.82 91.7852C96.9503 91.9328 97.0762 92.0891 97.2065 92.2368C97.9751 93.0922 98.7828 93.8956 99.6252 94.6468C101.054 95.9279 102.578 97.0526 104.198 98.0296C105.509 98.8243 106.864 99.5191 108.275 100.101C108.432 100.17 108.601 100.214 108.757 100.27C111.78 101.469 115.006 102.194 118.346 102.376C119.531 102.446 120.704 102.437 121.863 102.363L121.854 102.359Z" fill="#FCE6ED"/>
<path d="M164.384 71.1933C165.648 73.3037 168.392 74.0115 170.516 72.7609C173.746 70.8676 176.604 68.8006 179.005 66.612C183.604 64.3192 185.558 65.8781 187.06 67.563C187.421 67.9712 187.851 68.6269 187.951 70.0556C188.055 76.9297 184.802 81.4415 177.689 84.2381H177.668C177.668 84.2381 177.659 84.2511 177.646 84.2511H177.633L177.624 84.2641H177.611C177.611 84.2641 177.611 84.2641 177.602 84.2641V84.2771H177.581H177.568C177.568 84.2902 177.559 84.2902 177.559 84.2902H177.546L177.537 84.3032H177.516C177.516 84.3032 177.516 84.3162 177.507 84.3162H177.494C177.494 84.3162 177.472 84.3293 177.463 84.3293C177.455 84.3293 177.455 84.3423 177.442 84.3423C177.429 84.3423 177.42 84.3553 177.42 84.3553C177.238 84.4422 177.06 84.5377 176.886 84.6463C174.502 86.1878 169.643 88.485 160.024 90.6736C160.015 90.6866 160.002 90.6866 159.994 90.6866C157.84 91.173 156.403 93.1575 156.515 95.2983C156.528 95.5502 156.563 95.7977 156.624 96.0583C157.167 98.4727 159.581 99.9838 161.983 99.4324C170.12 97.5868 176.174 95.4764 180.425 93.0142C181.758 93.1966 183.048 93.5527 184.225 94.0607C185.853 94.8076 186.739 95.5806 186.856 96.3753C187.099 98.0601 187.855 103.167 175.305 108.339C172.722 109.398 169.743 110.388 166.468 111.274C166.078 111.348 165.7 111.448 165.309 111.543C164.996 111.626 164.671 111.7 164.323 111.769C161.553 112.369 158.239 113.102 157.31 113.393C155.304 114.006 154.058 115.899 154.166 117.897C154.184 118.244 154.249 118.604 154.353 118.96C155.061 121.323 157.562 122.665 159.924 121.97C160.28 121.861 162.282 121.384 166.19 120.541C166.408 120.498 166.625 120.454 166.842 120.398C167.011 120.519 167.194 120.654 167.376 120.784C169.282 122.196 170.324 123.933 170.681 126.247C170.694 126.256 170.698 126.377 170.698 126.39C170.698 126.403 170.416 127.072 168.535 127.941C168.505 127.962 168.47 127.975 168.427 127.988C165.652 129.374 162.473 129.556 157.636 129.804C154.162 129.99 149.815 130.22 144.591 131.015C144.317 131.05 144.035 131.076 143.775 131.102C143.414 131.141 143.067 131.171 142.75 131.224C140.348 131.384 139.189 131.38 138.334 131.371H137.873C137.838 131.363 137.817 131.367 137.786 131.371L137.469 131.389C135.146 131.558 133.309 133.503 133.318 135.87C133.318 138.345 135.333 140.343 137.808 140.338H137.982C138.529 140.356 139.628 140.382 141.443 140.299C141.456 140.33 141.46 140.373 141.473 140.417C141.53 141.233 140.027 142.028 138.75 142.544C135.224 143.96 130.131 144.429 124.034 143.886C120.699 143.582 118.002 142.531 115.813 140.699L135.081 94.1302C136.306 91.186 137.283 88.1984 138.034 85.1891C138.242 84.3466 138.438 83.5042 138.611 82.6617C139.992 75.9179 140.244 69.1263 139.463 62.5083C139.298 61.0927 139.08 59.6901 138.82 58.3048C138.802 58.218 138.776 58.1311 138.763 58.0443C140.744 56.5896 142.772 55.1348 144.865 53.7192L145.425 53.3371C151.226 49.3898 159.164 43.9747 164.918 38.6943C171.284 33.01 178.367 25.6972 182.657 14.4155C182.935 13.6686 183.517 12.0706 184.112 10.668C184.173 10.8069 184.225 10.9459 184.29 11.0979C184.993 12.8001 185.597 15.2362 186.088 18.3281C186.822 23.0093 186.787 27.9727 186.001 33.1185C185.223 38.4728 183.743 43.3146 181.567 47.5268C179.821 50.94 177.906 54.0188 175.839 56.7372C175.592 57.0455 175.349 57.3669 175.097 57.6404C175.058 57.6882 175.014 57.7447 174.975 57.7881C174.554 58.2918 174.055 58.8216 173.316 59.5294C171.232 61.4922 168.744 63.3421 165.921 65.0617C163.811 66.3341 163.133 69.0785 164.384 71.1889V71.1933Z" fill="#E9F6FB"/>
</svg>
