<svg width="838" height="306" viewBox="0 0 838 306" fill="none" xmlns="http://www.w3.org/2000/svg">
<g clip-path="url(#clip0_488_1908)">
<path d="M253.181 58.4931L228.185 51.6065L241.816 73.6635C243.304 76.0679 243.501 79.035 242.434 81.5929C252.752 83.7534 261.213 87.425 267.584 92.5211C269.599 94.1345 271.374 95.9133 272.916 97.8258C275.104 96.417 277.406 95.2954 279.807 94.4612C280.504 91.7419 282.491 89.4713 285.171 88.4639L309.443 79.342L285.45 69.5118C282.329 68.2328 280.212 65.2303 280.059 61.8578L278.886 35.9561L262.122 55.7385C259.942 58.3121 256.432 59.3943 253.177 58.501L253.181 58.4931Z" fill="#FFDA42"/>
<path d="M489.409 55.184C478.426 67.7256 470.005 81.8964 464.346 97.0588C469.399 95.2919 474.648 94.009 480.055 93.2141C484.927 82.6637 491.338 72.7509 499.208 63.7668C520.742 39.1794 550.559 24.4459 583.17 22.2855C615.785 20.125 647.287 30.7934 671.874 52.3231C681.094 60.3982 688.926 69.6342 695.23 79.7477L709.609 78.4963C702.136 65.0969 692.341 52.9331 680.457 42.5244C655.559 20.7192 624.25 8.98438 591.458 8.98438C588.42 8.98438 585.37 9.08669 582.312 9.28739C546.226 11.68 513.233 27.9797 489.409 55.184Z" fill="#FABC49"/>
<path d="M685.076 80.6332C679.709 72.7627 673.31 65.5219 665.955 59.0838C645.102 40.8244 618.886 30.9941 591.422 30.9941C588.88 30.9941 586.322 31.0768 583.764 31.2499C553.545 33.253 525.916 46.9043 505.964 69.6854C499.857 76.6586 494.702 84.2339 490.534 92.25C493.253 92.1162 495.882 92.0453 498.381 92.0453C500.88 92.0453 503.249 92.1122 505.535 92.2421C508.522 87.3545 511.946 82.6913 515.798 78.2917C533.452 58.1354 557.897 46.0582 584.633 44.2834C611.369 42.5126 637.196 51.2567 657.353 68.9101C661.937 72.924 666.101 77.2961 669.819 81.9593L685.08 80.6292L685.076 80.6332Z" fill="#F06668"/>
<path d="M658.829 82.9193C656.515 80.385 654.048 77.9648 651.431 75.6706C634.635 60.9607 613.515 53.043 591.395 53.043C589.344 53.043 587.286 53.1099 585.224 53.2476C560.881 54.861 538.627 65.8561 522.556 84.21C520.002 87.126 517.656 90.1758 515.52 93.3358C520.498 94.178 524.901 95.4372 528.781 97.1294C542.035 79.6255 562.51 67.7371 586.082 66.1748C607.911 64.7267 628.268 72.4083 643.426 85.9336C646.614 84.5524 650.112 83.6748 653.878 83.3482L658.829 82.9153V82.9193Z" fill="#ED9BC2"/>
<path d="M737.629 241.525C741.694 245.118 746.774 246.912 752.882 246.912C753.834 246.912 754.81 246.869 755.809 246.782C763.377 246.125 769.174 243.563 773.195 239.101C777.217 234.638 778.874 228.326 778.162 220.164C777.052 207.402 773.16 197.497 766.49 190.449C759.819 183.405 751.788 179.167 742.394 177.743L742.142 174.85C747.136 173.819 751.796 171.541 756.128 168.026C760.453 164.508 763.849 159.692 766.309 153.568C768.764 147.449 769.614 140.011 768.851 131.252C768.587 128.237 768.182 125.38 767.631 122.685C766.332 122.256 764.986 121.941 763.593 121.756L749.635 119.899C746.404 119.47 744.059 116.79 744.059 113.531C744.059 110.269 746.404 107.593 749.635 107.164L760.969 105.657C758.281 101.564 754.94 98.1996 750.938 95.5748C742.225 89.8609 731.639 87.0039 719.176 87.0039C716.67 87.0039 714.08 87.118 711.42 87.3502L654.654 92.2929C647.827 92.8871 642.534 95.6693 638.783 100.628C635.029 105.594 633.546 111.776 634.345 119.182C634.545 120.772 634.825 122.275 635.175 123.708L640.665 134.9C641.164 135.478 641.692 136.029 642.25 136.548C646.009 140.067 650.723 141.826 656.39 141.826C657.224 141.826 658.082 141.786 658.959 141.712L662.521 141.401L664 145.533C659.18 148.437 655.079 152.396 651.695 157.397L669.423 193.546C675.243 205.293 677.231 215.832 675.33 224.871C673.795 232.151 668.758 241.698 653.489 245.854C653.434 245.869 653.375 245.885 653.32 245.897C652.596 246.078 651.876 246.239 651.156 246.389C652.053 247.577 653.072 248.636 654.214 249.561C658.05 252.665 662.891 254.22 668.738 254.22C669.754 254.22 670.801 254.173 671.875 254.078C678.699 253.484 684.019 251.001 687.824 246.633C691.63 242.265 693.196 236.22 692.527 228.503L689.426 192.885L693.877 192.496C695.278 192.374 696.643 192.315 697.973 192.315C705.651 192.315 712.12 194.349 717.382 198.414C723.552 203.188 727.484 211.853 729.18 224.414C730.108 231.659 732.922 237.361 737.621 241.513L737.629 241.525ZM692.389 166.315C690.241 166.315 688.678 165.956 687.698 165.236C686.419 164.304 685.64 162.202 685.353 158.936L683.917 142.463C683.622 139.051 684.023 136.848 685.137 135.852C686.242 134.86 688.43 134.219 691.697 133.935L712.624 132.113C713.706 132.019 714.745 131.972 715.733 131.972C720.428 131.972 724.04 133.038 726.575 135.159C729.636 137.733 731.399 141.617 731.852 146.812C732.292 151.86 731.222 155.914 728.648 158.979C726.075 162.045 721.671 163.847 715.438 164.39L694.51 166.212C693.747 166.279 693.042 166.311 692.389 166.311V166.315Z" fill="#F4F6FB"/>
<path d="M715.437 164.39C721.671 163.847 726.074 162.045 728.648 158.979C731.221 155.918 732.292 151.86 731.851 146.811C731.398 141.617 729.639 137.733 726.574 135.159C724.04 133.034 720.427 131.972 715.732 131.972C714.745 131.972 713.71 132.019 712.623 132.113L691.696 133.935C688.43 134.219 686.242 134.86 685.136 135.852C684.022 136.847 683.621 139.051 683.916 142.463L685.352 158.936C685.636 162.202 686.415 164.304 687.698 165.236C688.678 165.956 690.24 166.314 692.388 166.314C693.042 166.314 693.75 166.283 694.51 166.216L715.437 164.394V164.39ZM705.678 154.741L721.623 153.352C721.076 153.879 719.368 155.028 714.658 155.441L705.808 156.213L705.678 154.741Z" fill="#1C2149"/>
<path d="M651.131 237.192C659.919 234.804 665.054 230.077 666.542 223.025C668.025 215.973 666.302 207.473 661.367 197.525L626.607 126.648C621.818 116.813 616.415 109.329 610.39 104.177C605.557 100.049 599.273 97.9834 591.54 97.9834C589.635 97.9834 587.644 98.1093 585.566 98.3572C578.593 99.1954 572.93 101.214 568.578 104.406C564.226 107.601 560.794 111.816 558.291 117.054C555.784 122.295 553.762 128.478 552.219 135.6L548.06 154.328C549.897 155.505 551.546 156.91 552.998 158.551C558.126 164.355 560.983 172.485 561.735 183.405L564.233 219.669C564.867 228.885 562.624 236.397 557.559 242.005C555.257 244.551 552.577 246.57 549.543 248.073C551.302 248.451 553.195 248.679 555.237 248.738C555.344 248.738 555.45 248.738 555.556 248.738C562.758 248.738 568.731 247.141 573.477 243.937C578.29 240.691 580.864 236.043 581.206 229.995C581.387 225.969 581.057 222.675 580.214 220.105C579.368 217.54 578.589 215.497 577.877 213.982C577.192 212.731 576.936 211.464 577.117 210.169C577.294 208.882 578.239 208.131 579.951 207.926L616.651 203.507C616.899 203.475 617.135 203.463 617.355 203.463C618.662 203.463 619.523 203.983 619.933 205.014C620.409 206.226 620.535 207.513 620.299 208.874C619.96 210.515 619.657 212.688 619.382 215.391C619.106 218.095 619.602 221.369 620.865 225.221C622.628 231.014 626.335 234.906 631.978 236.893C634.946 237.94 638.121 238.463 641.498 238.463C644.544 238.463 647.751 238.038 651.131 237.188V237.192ZM586.955 146.438C587.192 145.076 587.561 143.998 588.069 143.203C588.573 142.412 589.482 141.932 590.8 141.775C591.056 141.743 591.3 141.727 591.532 141.727C592.492 141.727 593.248 141.991 593.791 142.514C594.472 143.168 595.019 144.136 595.444 145.419L609.579 176.346L580.773 179.817L586.963 146.442L586.955 146.438Z" fill="#F4F6FB"/>
<path d="M609.572 176.342L595.436 145.415C595.011 144.136 594.464 143.164 593.783 142.511C593.236 141.987 592.481 141.724 591.525 141.724C591.292 141.724 591.048 141.739 590.793 141.771C589.478 141.928 588.569 142.408 588.062 143.199C587.558 143.994 587.188 145.076 586.948 146.434L580.758 179.809L609.564 176.338L609.572 176.342Z" fill="#1C2149"/>
<path d="M443.273 120.095C443.355 120.851 443.418 121.611 443.45 122.39L447.629 227.146C447.763 230.495 447.357 233.694 446.452 236.692C447.92 237.967 449.447 239.148 451.041 240.238C458.16 245.094 466.176 247.522 475.097 247.522C476.254 247.522 477.43 247.483 478.615 247.4L480.362 247.278C490.314 246.594 498.082 243.363 503.663 237.59C509.239 231.817 511.624 223.045 510.813 211.279L514.304 211.039L515.13 223.061C515.594 229.782 517.755 234.764 521.615 238.007C525.015 240.864 529.379 242.292 534.704 242.292C535.42 242.292 536.156 242.265 536.907 242.214C542.854 241.804 547.517 239.73 550.897 235.988C554.274 232.25 555.734 227.02 555.273 220.294L552.774 184.031C552.168 175.24 549.996 168.731 546.265 164.509C542.98 160.794 537.891 158.936 530.993 158.936C530.048 158.936 529.068 158.972 528.057 159.042L504.784 160.644C500.259 160.955 496.859 162.553 494.592 165.437C492.321 168.322 491.337 171.962 491.64 176.357C491.943 180.753 493.419 184.259 496.068 186.868C498.433 189.202 501.545 190.367 505.41 190.367C505.87 190.367 506.346 190.351 506.827 190.316L516.33 189.663C515.575 195.691 513.143 199.949 509.026 202.44C504.91 204.935 500.396 206.348 495.485 206.686C494.383 206.761 493.297 206.8 492.227 206.8C487.524 206.8 483.14 206.068 479.071 204.601C474.078 202.802 469.969 199.741 466.746 195.416C463.527 191.091 461.67 185.373 461.182 178.262C460.576 169.471 462.303 162.014 466.364 155.886C470.426 149.763 477.56 146.347 487.772 145.643C489.708 145.509 491.574 145.442 493.372 145.442C495.898 145.442 498.291 145.572 500.55 145.836C504.41 146.284 508.212 146.768 511.95 147.292C514.37 147.63 516.869 147.8 519.459 147.8C520.867 147.8 522.304 147.748 523.764 147.65C529.84 147.233 534.239 144.655 536.967 139.921C539.694 135.187 540.851 129.847 540.441 123.901C539.918 116.274 535.318 110.32 526.644 106.047C519.864 102.706 510.439 101.033 498.37 101.033C495.001 101.033 491.428 101.163 487.646 101.423C478.206 102.072 469.363 104.276 461.115 108.022C454.409 111.072 448.459 115.098 443.261 120.099L443.273 120.095Z" fill="#F4F6FB"/>
<path d="M412.558 103.469C406.372 103.717 401.488 105.885 397.899 109.982C396.518 111.56 395.42 113.26 394.605 115.09C397.474 121.359 398.615 129.194 397.99 138.489L395.109 181.154L397.026 229.164C397.25 234.819 399.343 239.416 403.306 242.941C407.013 246.247 411.633 247.9 417.174 247.9C417.552 247.9 417.937 247.892 418.323 247.876C424.372 247.636 429.326 245.594 433.194 241.749C437.059 237.908 438.881 233.158 438.653 227.504L434.473 122.748C434.249 117.093 432.183 112.402 428.279 108.667C424.631 105.185 419.819 103.441 413.837 103.441C413.416 103.441 412.991 103.449 412.558 103.469Z" fill="#F4F6FB"/>
<path d="M306.83 107.334C302.808 103.941 298.09 102.06 292.671 101.694C292.022 101.651 291.38 101.627 290.747 101.627C285.965 101.627 281.644 102.875 277.784 105.37C277.693 105.429 277.611 105.492 277.524 105.551C278.831 108.711 279.637 112.107 279.901 115.692C280.609 125.333 278.351 133.369 273.195 139.571C271.893 141.137 270.468 142.53 268.922 143.754L267.741 161.246C272.774 164.19 277.103 167.743 280.672 171.875C286.674 178.825 290.137 188.065 290.963 199.347C291.935 212.585 289.432 223.911 283.537 233.001C283.175 233.56 282.801 234.111 282.416 234.658C287.508 239.002 293.32 242.316 299.861 244.598C306.932 247.07 314.429 248.636 322.35 249.305C324.503 249.451 326.628 249.521 328.726 249.521C334.361 249.521 339.803 248.998 345.049 247.947C352.25 246.511 358.747 243.693 364.544 239.502C370.337 235.311 375.043 229.523 378.664 222.128C382.28 214.738 384.468 205.49 385.22 194.385L389.037 137.875C389.706 127.962 388.155 120.418 384.389 115.251C380.619 110.084 375.102 107.255 367.83 106.763C367.153 106.716 366.492 106.696 365.835 106.696C359.452 106.696 354.092 108.868 349.767 113.213C344.994 118.006 342.707 124.857 342.9 133.763C343.01 138.02 343.357 141.731 343.943 144.887C344.525 148.047 345.273 151.219 346.19 154.403C347.103 157.586 347.988 161.195 348.846 165.24C349.7 169.282 350.397 174.244 350.928 180.12C351.802 188.813 350.444 195.624 346.859 200.559C343.27 205.494 337.757 207.981 330.323 208.009C323.287 207.934 317.707 205.565 313.571 200.902C309.435 196.242 307.688 189.218 308.321 179.832L312.229 121.933C312.658 115.59 310.86 110.722 306.842 107.326L306.83 107.334Z" fill="#F4F6FB"/>
<path d="M154.836 234.985C155.462 235.591 156.115 236.181 156.788 236.755C159.81 234.016 161.88 230.25 162.447 226.004L163.978 214.486C164.383 211.424 166.921 209.201 170.01 209.201C173.099 209.201 175.638 211.424 176.043 214.486L177.574 226.004C178.621 233.891 184.866 240.132 192.752 241.183L204.27 242.713C207.332 243.119 209.556 245.657 209.556 248.746C209.556 250.32 208.977 251.749 208.005 252.827C209.603 252.89 211.2 252.921 212.794 252.921C215.801 252.921 218.795 252.811 221.778 252.595C234.556 251.658 245.579 249.21 254.846 245.24C264.114 241.277 271.166 235.567 275.998 228.118C280.83 220.672 282.83 211.298 282.003 200.004C281.318 190.646 278.607 183.224 273.873 177.747C269.139 172.269 262.78 168.03 254.791 165.028C246.802 162.029 237.594 159.645 227.158 157.87L214.467 155.886C206.14 154.407 200.142 153.053 196.471 151.829C192.795 150.609 190.843 148.433 190.615 145.312C190.43 142.786 191.619 140.645 194.177 138.89C196.735 137.135 200.615 136.065 205.817 135.683C207.501 135.561 209.158 135.498 210.791 135.498C214.785 135.498 218.642 135.864 222.353 136.6C227.583 137.639 232.592 138.729 237.382 139.866C241.132 140.763 244.736 141.208 248.192 141.208C249.148 141.208 250.092 141.173 251.025 141.106C257.561 140.626 262.65 138.201 266.29 133.825C269.926 129.453 271.48 123.625 270.945 116.345C270.445 109.514 267.455 103.906 261.981 99.526C256.507 95.15 249.069 92.0372 239.676 90.1837C233.332 88.9362 226.359 88.3105 218.752 88.3105C215.085 88.3105 211.267 88.4562 207.308 88.7474C195.42 89.617 184.76 91.8955 175.323 95.575C171.435 97.09 167.917 98.8806 164.753 100.939C164.706 103.308 164.505 105.712 164.135 108.144C163.313 113.823 161.691 119.053 159.318 123.649C158.468 125.325 157.555 126.935 156.607 128.462C159.606 129.28 161.762 131.122 163.108 132.645C164.843 134.569 165.815 137.029 165.969 139.917C165.969 139.968 165.973 140.008 165.969 140.055C166.103 146.426 163.989 151.68 159.791 155.611C163.423 157.87 164.592 160.715 164.902 162.852C165.032 163.721 165.083 164.571 165.072 165.402C168.92 167.543 173.273 169.333 178.148 170.762C187.31 173.449 197.632 175.72 209.119 177.566L220.236 179.439C225.064 180.131 229.114 181.328 232.372 183.028C235.634 184.732 237.374 187.069 237.59 190.04C237.775 192.567 236.811 194.656 234.69 196.301C232.569 197.95 228.614 198.985 222.817 199.41C221.633 199.497 220.448 199.54 219.264 199.54C214.64 199.54 209.988 198.879 205.317 197.557C199.446 195.896 193.681 194.192 188.026 192.437C183.083 190.91 178.196 190.143 173.367 190.143C172.671 190.143 171.974 190.158 171.281 190.19C164.273 190.406 158.354 193.153 153.514 198.438C148.67 203.723 146.552 210.452 147.151 218.622C147.619 225.013 150.181 230.463 154.848 234.973L154.836 234.985Z" fill="#F4F6FB"/>
<path d="M186.062 248.746C178.604 246.058 172.694 240.148 170.006 232.69C167.318 240.148 161.407 246.058 153.95 248.746C161.407 251.434 167.318 257.345 170.006 264.802C172.694 257.345 178.604 251.434 186.062 248.746Z" fill="#25B796"/>
<path d="M813.739 113.531C802.606 110.718 793.846 101.958 791.032 90.8252C788.219 101.958 779.459 110.718 768.326 113.531C779.459 116.345 788.219 125.105 791.032 136.238C793.846 125.105 802.606 116.345 813.739 113.531Z" fill="#25B796"/>
<path d="M832.424 107.164L818.466 105.307C808.482 103.981 800.58 96.0789 799.254 86.0952L797.396 72.1369C796.968 68.9061 794.288 66.5607 791.029 66.5607C787.771 66.5607 785.091 68.9061 784.662 72.1369L782.805 86.0952C781.88 93.0606 777.752 99.0067 771.955 102.419C770.873 101.553 769.748 100.734 768.575 99.963C768.225 99.7347 767.866 99.5183 767.512 99.2979C764.329 94.8196 760.449 91.0654 755.868 88.0628C745.786 81.4516 733.551 78.0791 719.51 78.028C711.195 61.9644 700.058 47.7503 686.372 35.7636C672.268 23.4109 656.173 14.045 638.539 7.92575C620.279 1.59002 601.158 -0.967879 581.714 0.318942C562.27 1.60576 543.657 6.66647 526.393 15.3555C509.719 23.7493 495.001 35.1536 482.649 49.2614C470.296 63.3653 460.93 79.4604 454.815 97.0942C454.264 98.688 453.74 100.286 453.245 101.891C448.995 104.15 445.016 106.795 441.333 109.813C440.849 109.553 440.357 109.309 439.857 109.077C438.464 106.566 436.677 104.26 434.489 102.167C429.129 97.047 422.184 94.4497 413.841 94.4497V103.434V98.9437V94.4537C413.306 94.4537 412.755 94.4655 412.204 94.4851C403.617 94.8275 396.333 98.137 391.147 104.052C390.36 104.949 389.647 105.874 388.986 106.826C383.8 101.47 376.775 98.3653 368.425 97.8025C367.551 97.7435 366.677 97.712 365.827 97.712C356.997 97.712 349.449 100.793 343.393 106.873C337.474 112.815 334.31 120.847 333.944 130.768C333.574 121.363 329.19 115.621 325.334 112.363C323.213 110.576 320.938 109.093 318.53 107.912C316.865 104.61 314.669 102.186 312.627 100.459C308.271 96.7872 303.285 94.3986 297.76 93.3124L313.296 87.4765C316.668 86.2093 318.88 83.0651 318.931 79.4643C318.982 75.8636 316.865 72.6564 313.532 71.2909L289.031 61.2521L287.831 34.7995C287.67 31.2026 285.36 28.1253 281.952 26.9644C278.544 25.7996 274.837 26.8267 272.511 29.5735L255.393 49.773L229.865 42.7408C226.394 41.7845 222.754 43.028 220.598 45.9086C218.437 48.7892 218.268 52.63 220.161 55.6955L234.084 78.2169L232.86 80.0704C228.377 79.5745 223.659 79.3227 218.748 79.3227C214.88 79.3227 210.807 79.4762 206.647 79.7831C193.928 80.7158 182.288 83.2107 172.056 87.1971C169.199 88.3108 166.5 89.5661 163.958 90.9552C163.454 88.1258 162.828 85.8316 162.073 83.9899C160.322 79.6729 157.783 77.3472 154.513 77.0678C149.472 76.5365 147.536 81.731 145.521 87.2089C142.936 93.9814 138.804 99.5695 131.649 105.964C126.852 110.372 119.954 115.062 114.925 118.494L114.429 118.828C113.331 119.568 112.265 120.328 111.198 121.076C110.789 119.899 110.34 118.738 109.856 117.589C109.825 117.581 109.793 117.553 109.766 117.534C109.766 117.502 109.781 117.463 109.781 117.424C106.011 108.668 100.057 100.856 92.3129 94.855C91.88 94.5127 91.4274 94.1703 90.9749 93.8476C87.9999 91.6832 84.7848 89.7668 81.3375 88.1809C80.6174 87.8425 79.8893 87.5158 79.1495 87.2089C79.0472 87.1656 78.937 87.1302 78.8347 87.0869C70.6179 83.7498 62.0745 82.4551 53.7673 82.9785C53.1455 83.01 52.5277 83.0651 51.9059 83.1281C47.8723 83.5098 43.9213 84.3165 40.0884 85.5285C39.0495 85.8512 38.0185 86.2133 36.9992 86.595C30.3487 89.1135 24.1822 92.8559 18.8539 97.6569C17.1184 99.2232 15.4696 100.904 13.923 102.686C12.1246 104.768 10.464 106.983 8.96071 109.349C7.31971 111.938 5.85581 114.696 4.61621 117.609C4.52963 117.809 4.43912 118.014 4.35255 118.215C2.49512 122.693 1.23978 127.36 0.574724 132.11C0.421249 133.145 0.299257 134.192 0.216617 135.242C-0.106072 139.016 -0.0627842 142.81 0.366156 146.584C0.480278 147.627 0.633752 148.665 0.810838 149.716C1.21617 152.128 1.7789 154.521 2.50692 156.874V156.902C3.92361 161.404 7.48893 164.792 12.53 166.453C16.7958 167.858 21.766 167.917 26.5 166.626C29.6876 165.752 32.7295 164.237 35.2481 162.136C39.443 158.637 42.2056 153.518 41.7845 146.973C41.7766 146.836 41.7609 146.698 41.753 146.548C41.6664 145.513 41.5011 144.435 41.2454 143.314C40.6118 140.146 40.9227 136.875 42.1741 133.869C42.2961 133.566 42.4299 133.271 42.5715 132.987C43.7206 130.611 45.3931 128.623 47.3804 127.124C48.8325 126.018 50.4499 125.172 52.1696 124.613C53.9011 124.047 55.7349 123.759 57.5726 123.803C59.5521 123.834 61.5512 124.232 63.4912 125.03C64.2389 125.345 64.9512 125.703 65.6241 126.105C66.116 126.396 66.5765 126.715 67.029 127.049C68.6031 128.23 69.9293 129.682 70.9721 131.299C71.7906 132.59 72.4399 133.991 72.8728 135.451C73.9078 138.926 73.8173 142.759 72.3258 146.355L31.6513 244.622C30.207 248.101 30.9075 251.969 33.6267 255.511C36.2948 258.978 40.8085 262.028 45.7512 264.07C50.686 266.12 56.0418 267.159 60.3824 266.581C64.8017 265.998 68.0325 263.759 69.4767 260.273L89.5582 211.739C92.4152 213.553 95.7169 214.644 99.4514 214.99C102.096 215.226 104.579 215.281 106.877 215.159C110.545 214.962 113.764 214.317 116.503 213.211C123.653 210.287 124.279 205.537 123.944 202.799C126.549 202.531 128.836 202.397 130.937 202.295C134.794 202.106 138.032 201.925 141.169 200.917C138.686 206.328 137.674 212.467 138.174 219.275C138.792 227.712 142.16 235.024 148.177 241.017C147.874 241.073 147.567 241.128 147.261 241.167L135.742 242.698C132.68 243.103 130.457 245.641 130.457 248.731C130.457 251.82 132.68 254.358 135.742 254.763L147.261 256.294C155.147 257.341 161.388 263.582 162.439 271.472L163.97 282.991C164.375 286.052 166.913 288.276 170.002 288.276C173.091 288.276 175.63 286.052 176.035 282.991L177.566 271.472C177.865 269.217 178.589 267.1 179.655 265.199C180.505 265.562 181.363 265.92 182.245 266.258C190.194 269.335 198.887 271.492 208.08 272.669C213.892 273.416 219.751 273.794 225.493 273.794C228.704 273.794 231.951 273.676 235.134 273.444C248.849 272.44 260.942 269.729 271.079 265.392C278.217 262.339 284.305 258.321 289.295 253.398C295.213 258.443 302.033 262.335 309.597 264.975C317.337 267.679 325.649 269.422 334.294 270.15C334.345 270.154 334.397 270.158 334.444 270.162C336.785 270.319 339.135 270.402 341.425 270.402C347.623 270.402 353.711 269.816 359.511 268.655C367.944 266.97 375.681 263.614 382.509 258.683C387.007 255.428 390.97 251.371 394.362 246.57C395.259 247.656 396.251 248.683 397.329 249.644C399.411 251.501 401.693 253 404.153 254.145C405.648 256.9 407.612 259.387 410.036 261.548C415.415 266.345 422.093 268.781 429.877 268.781C430.373 268.781 430.881 268.769 431.384 268.749C439.723 268.415 446.74 265.479 452.229 260.017C453.249 259.005 454.169 257.935 455 256.821C456.192 257.782 457.416 258.695 458.679 259.552C467.282 265.424 477.08 268.399 487.8 268.399C489.157 268.399 490.551 268.352 491.936 268.253L493.683 268.131C505.878 267.293 515.681 263.114 522.827 255.72C523.61 254.909 524.346 254.059 525.035 253.169C526.078 254.488 527.247 255.688 528.545 256.778C533.59 261.016 539.938 263.165 547.411 263.165C547.686 263.165 547.97 263.157 548.253 263.149C552.593 266.648 558.807 269.363 567.697 269.611C567.76 269.611 567.827 269.611 567.89 269.611C568.016 269.611 568.142 269.611 568.268 269.611C570.491 269.611 572.64 269.481 574.706 269.217L583.363 274.617L580.652 296.449C580.242 299.759 581.868 302.927 584.799 304.52C586.015 305.181 587.342 305.508 588.652 305.508C590.502 305.508 592.331 304.863 593.823 303.611L610.662 289.456L630.59 298.783C633.612 300.196 637.126 299.625 639.546 297.331C641.967 295.036 642.722 291.554 641.471 288.465L633.211 268.072L642.943 257.664C646.036 258.624 649.294 259.179 652.666 259.305C653.245 259.627 653.839 259.93 654.441 260.21C656.204 263.429 658.483 266.179 661.277 268.438C666.735 272.857 673.523 275.097 681.453 275.097C682.724 275.097 684.042 275.038 685.372 274.923C694.561 274.125 701.943 270.595 707.315 264.432C712.769 258.167 715.083 249.825 714.194 239.624L711.896 213.219C713.918 213.29 715.788 213.553 717.523 214.002C718.743 217.205 719.676 221.086 720.286 225.587C721.502 235.012 725.334 242.631 731.686 248.243C733.646 249.974 735.775 251.41 738.057 252.556C739.777 255.389 741.886 257.927 744.397 260.143C750.13 265.211 757.261 267.781 765.596 267.781C766.8 267.781 768.047 267.726 769.303 267.616C779.176 266.758 787.007 263.185 792.584 256.998C798.321 250.631 800.761 241.974 799.828 231.27C798.542 216.497 793.8 204.683 785.732 196.16C782.86 193.122 779.751 190.517 776.426 188.333C775.957 187.703 775.477 187.089 774.977 186.487C780.258 182.048 784.422 176.106 787.358 168.802C788.412 166.173 789.223 163.356 789.794 160.369C790.195 160.444 790.608 160.487 791.037 160.487C794.295 160.487 796.975 158.141 797.404 154.911L799.262 140.952C800.588 130.969 808.49 123.067 818.474 121.741L832.432 119.883C835.663 119.454 838.008 116.774 838.008 113.516C838.008 110.254 835.663 107.578 832.432 107.149L832.424 107.164ZM30.9469 155.001C28.7352 157.303 25.7366 158.346 24.3435 158.724C18.1534 160.408 13.1006 158.692 11.0739 155.902C10.7434 155.446 10.4915 154.966 10.3341 154.47C9.42506 151.522 8.81904 148.5 8.48848 145.462C8.28385 143.672 8.1894 141.861 8.20121 140.059C12.951 137.879 18.5509 137.6 23.7572 139.744C26.8109 141.015 29.3767 142.983 31.3443 145.38C32.2219 146.45 32.9774 147.615 33.6071 148.839C33.4615 151.515 32.3635 153.522 30.9508 155.001H30.9469ZM37.5974 125.459C36.409 127.057 35.3858 128.82 34.5869 130.752C34.2092 131.673 33.8943 132.598 33.6307 133.55C33.4221 134.282 33.2529 135.014 33.127 135.762C31.2499 134.329 29.1681 133.117 26.8936 132.169C21.0104 129.733 14.7573 129.493 9.04728 131.055C9.66118 127.75 10.6253 124.503 11.92 121.359C12.1128 120.894 12.3135 120.43 12.53 119.974C13.9545 116.814 15.6742 113.874 17.6458 111.178C17.8583 110.891 18.0708 110.604 18.2911 110.313C21.2622 110.065 24.3435 110.494 27.295 111.721C32.9656 114.067 36.9363 118.809 38.5261 124.291C38.2113 124.672 37.8965 125.054 37.6013 125.455L37.5974 125.459ZM55.849 106.747C55.727 110.057 54.7786 113.154 53.2085 115.838C53.2596 115.865 53.3029 115.901 53.3501 115.928C53.2714 115.944 53.2045 115.956 53.1337 115.968C50.3515 116.444 47.6834 117.384 45.2239 118.762C43.575 114.905 41.0447 111.43 37.7705 108.64C35.6258 106.806 33.1624 105.276 30.4235 104.146C28.8376 103.489 27.2281 102.993 25.6067 102.643C28.9359 99.8449 32.6193 97.5035 36.5349 95.6814C39.4981 94.2962 42.6109 93.2101 45.8063 92.4388C47.038 92.1476 48.2697 91.8918 49.5251 91.6951C49.9107 92.0414 50.2846 92.4073 50.6427 92.793C54.1765 96.5984 56.034 101.553 55.8451 106.743L55.849 106.747ZM613.936 281.086C611.106 279.76 607.73 280.205 605.341 282.215L589.856 295.229L592.347 275.156C592.733 272.055 591.269 268.981 588.617 267.328L571.455 256.625L591.316 252.792C594.386 252.201 596.853 249.856 597.605 246.826L602.48 227.197L612.263 244.902C613.775 247.637 616.765 249.262 619.882 249.041L640.058 247.613L626.245 262.386C624.112 264.668 623.491 268.013 624.663 270.91L632.258 289.657L613.936 281.082V281.086ZM461.127 108.022C469.375 104.272 478.221 102.072 487.658 101.423C491.44 101.163 495.013 101.033 498.382 101.033C510.451 101.033 519.872 102.706 526.656 106.047C535.33 110.321 539.926 116.275 540.453 123.901C540.863 129.847 539.702 135.191 536.978 139.921C534.251 144.655 529.848 147.233 523.776 147.65C522.316 147.752 520.879 147.8 519.471 147.8C516.885 147.8 514.382 147.63 511.962 147.292C508.224 146.769 504.422 146.285 500.562 145.836C498.303 145.576 495.91 145.442 493.384 145.442C491.586 145.442 489.72 145.509 487.784 145.643C477.568 146.348 470.434 149.759 466.376 155.887C462.315 162.01 460.588 169.471 461.194 178.262C461.682 185.373 463.539 191.091 466.758 195.416C469.981 199.745 474.086 202.802 479.083 204.601C483.152 206.065 487.536 206.801 492.239 206.801C493.309 206.801 494.395 206.761 495.497 206.686C500.408 206.348 504.926 204.935 509.038 202.44C513.155 199.949 515.587 195.691 516.342 189.663L506.838 190.316C506.354 190.347 505.882 190.367 505.422 190.367C501.557 190.367 498.445 189.202 496.08 186.869C493.431 184.26 491.955 180.757 491.652 176.358C491.349 171.962 492.333 168.322 494.604 165.437C496.871 162.553 500.267 160.955 504.796 160.644L528.069 159.043C529.08 158.972 530.06 158.936 531.005 158.936C537.899 158.936 542.992 160.794 546.277 164.509C550.008 168.731 552.18 175.24 552.786 184.031L555.285 220.295C555.75 227.02 554.29 232.25 550.909 235.988C547.529 239.727 542.866 241.805 536.919 242.214C536.168 242.265 535.432 242.292 534.716 242.292C529.391 242.292 525.027 240.864 521.627 238.007C517.767 234.764 515.606 229.782 515.142 223.061L514.315 211.039L510.825 211.279C511.636 223.045 509.251 231.817 503.675 237.59C498.094 243.367 490.33 246.594 480.374 247.278L478.627 247.4C477.438 247.483 476.266 247.522 475.109 247.522C466.188 247.522 458.168 245.094 451.053 240.238C449.459 239.152 447.932 237.968 446.464 236.693C447.369 233.694 447.775 230.499 447.641 227.146L443.462 122.39C443.43 121.611 443.367 120.851 443.284 120.096C448.483 115.094 454.433 111.068 461.139 108.018L461.127 108.022ZM680.457 42.5283C692.341 52.9369 702.14 65.1007 709.609 78.5002L695.23 79.7516C688.926 69.6381 681.091 60.3981 671.874 52.327C647.287 30.7934 615.785 20.125 583.17 22.2893C550.559 24.4498 520.738 39.1833 499.208 63.7706C491.338 72.7548 484.927 82.6676 480.055 93.218C474.648 94.0168 469.399 95.2997 464.346 97.0627C470.005 81.9003 478.426 67.7295 489.409 55.1879C513.233 27.9836 546.226 11.68 582.312 9.29127C585.37 9.08664 588.42 8.98826 591.458 8.98826C624.25 8.98826 655.559 20.7231 680.457 42.5283ZM643.427 85.9378C628.268 72.4124 607.911 64.7308 586.082 66.179C562.506 67.7413 542.035 79.6296 528.781 97.1335C524.901 95.4453 520.498 94.1861 515.52 93.34C517.656 90.18 520.002 87.1302 522.556 84.2142C538.627 65.8602 560.885 54.8652 585.224 53.2518C587.286 53.114 589.345 53.0471 591.395 53.0471C613.515 53.0471 634.635 60.9648 651.431 75.6747C654.052 77.969 656.515 80.3891 658.829 82.9234L653.878 83.3563C650.109 83.6829 646.61 84.5605 643.427 85.9417V85.9378ZM619.866 240.038H619.843L619.819 239.998C619.835 240.01 619.847 240.022 619.862 240.038H619.866ZM641.506 238.471C638.13 238.471 634.954 237.948 631.987 236.901C626.344 234.914 622.637 231.022 620.874 225.229C619.61 221.377 619.115 218.103 619.39 215.399C619.666 212.7 619.969 210.523 620.307 208.882C620.543 207.521 620.421 206.234 619.941 205.022C619.532 203.987 618.67 203.471 617.363 203.471C617.143 203.471 616.907 203.487 616.659 203.515L579.959 207.934C578.247 208.139 577.303 208.89 577.126 210.177C576.945 211.468 577.2 212.739 577.885 213.99C578.597 215.505 579.381 217.548 580.223 220.114C581.065 222.683 581.395 225.977 581.214 230.003C580.872 236.051 578.298 240.699 573.486 243.945C568.74 247.145 562.766 248.746 555.565 248.746C555.458 248.746 555.352 248.746 555.246 248.746C553.199 248.687 551.307 248.463 549.552 248.081C552.586 246.582 555.269 244.559 557.568 242.013C562.632 236.409 564.875 228.893 564.242 219.677L561.743 183.414C560.991 172.493 558.134 164.363 553.007 158.559C551.555 156.918 549.906 155.509 548.068 154.336L552.228 135.608C553.77 128.486 555.797 122.299 558.3 117.062C560.802 111.824 564.234 107.609 568.586 104.414C572.939 101.222 578.598 99.2035 585.575 98.3653C587.652 98.1134 589.644 97.9914 591.548 97.9914C599.281 97.9914 605.562 100.057 610.398 104.185C616.423 109.333 621.83 116.822 626.615 126.656L661.375 197.533C666.31 207.481 668.034 215.982 666.55 223.033C665.062 230.085 659.927 234.808 651.14 237.2C647.763 238.05 644.552 238.475 641.506 238.475V238.471ZM626.084 107.086C625.553 106.724 625.01 106.377 624.459 106.047C621.85 102.718 619.103 99.8095 616.23 97.3579C609.745 91.817 601.441 89.0112 591.544 89.0112C589.293 89.0112 586.921 89.1608 584.496 89.452C576.004 90.4751 568.866 93.0724 563.27 97.1768C557.729 101.246 553.329 106.633 550.193 113.193C550.091 113.41 549.988 113.63 549.886 113.846C548.501 112.827 547.088 111.926 545.691 111.135C543.314 107.125 540.072 104.001 536.683 101.584C548.434 86.6186 566.237 76.4972 586.673 75.1435C605.089 73.9235 622.326 80.0428 635.521 90.9867C634.104 92.2539 632.797 93.6627 631.617 95.221C628.937 98.7627 627.091 102.733 626.076 107.09L626.084 107.086ZM657.353 68.9179C637.197 51.2645 611.37 42.5204 584.634 44.2912C557.898 46.0621 533.452 58.1393 515.799 78.2995C511.95 82.6952 508.523 87.3624 505.536 92.2499C503.25 92.1201 500.869 92.0532 498.382 92.0532C495.895 92.0532 493.254 92.124 490.535 92.2578C494.702 84.2378 499.861 76.6664 505.965 69.6932C525.917 46.9082 553.546 33.2608 583.764 31.2577C586.326 31.0885 588.88 31.002 591.422 31.002C618.882 31.002 645.103 40.8282 665.956 59.0916C673.311 65.5297 679.709 72.7745 685.077 80.641L669.816 81.9711C666.093 77.3078 661.934 72.9358 657.349 68.9219L657.353 68.9179ZM482.865 189.549C482.653 186.471 482.786 183.669 483.263 181.107C484.27 185.908 486.45 189.989 489.775 193.267C491.656 195.121 493.837 196.573 496.257 197.588C495.804 197.647 495.344 197.691 494.879 197.722C493.986 197.785 493.097 197.816 492.239 197.816C489.374 197.816 486.659 197.462 484.136 196.774C483.479 194.676 483.054 192.26 482.865 189.545V189.549ZM729.195 224.434C727.503 211.873 723.568 203.204 717.397 198.434C712.136 194.369 705.666 192.335 697.989 192.335C696.658 192.335 695.293 192.398 693.892 192.516L689.441 192.905L692.542 228.523C693.215 236.24 691.645 242.285 687.84 246.653C684.03 251.021 678.714 253.504 671.89 254.098C670.816 254.193 669.769 254.24 668.754 254.24C662.906 254.24 658.062 252.685 654.229 249.581C653.084 248.656 652.064 247.597 651.171 246.409C651.887 246.259 652.611 246.098 653.335 245.917C653.391 245.901 653.45 245.889 653.505 245.874C668.773 241.718 673.81 232.171 675.345 224.891C677.246 215.852 675.259 205.313 669.438 193.566L651.71 157.417C655.094 152.416 659.195 148.457 664.016 145.553L662.536 141.421L658.975 141.732C658.097 141.806 657.239 141.846 656.405 141.846C650.734 141.846 646.02 140.091 642.266 136.569C641.707 136.049 641.18 135.498 640.68 134.92L635.19 123.728C634.84 122.295 634.56 120.788 634.36 119.202C633.565 111.796 635.044 105.61 638.799 100.648C642.553 95.6893 647.842 92.9071 654.669 92.3129L711.435 87.3702C714.095 87.1381 716.681 87.0239 719.192 87.0239C731.654 87.0239 742.24 89.8809 750.953 95.5949C754.955 98.2197 758.296 101.58 760.984 105.677L749.65 107.184C746.419 107.613 744.074 110.293 744.074 113.551C744.074 116.81 746.419 119.49 749.65 119.919L763.609 121.776C764.998 121.961 766.347 122.276 767.646 122.705C768.193 125.4 768.602 128.253 768.866 131.272C769.629 140.032 768.779 147.469 766.324 153.588C763.864 159.712 760.472 164.528 756.143 168.046C751.811 171.565 747.151 173.843 742.158 174.87L742.409 177.763C751.803 179.187 759.839 183.421 766.505 190.469C773.175 197.517 777.063 207.422 778.177 220.184C778.889 228.346 777.228 234.658 773.21 239.121C769.185 243.587 763.392 246.145 755.825 246.802C754.825 246.889 753.849 246.932 752.897 246.932C746.793 246.932 741.709 245.138 737.644 241.545C732.945 237.393 730.132 231.695 729.203 224.446L729.195 224.434ZM768.331 113.54C779.464 110.726 788.223 101.966 791.037 90.8332C793.851 101.966 802.611 110.726 813.743 113.54C802.611 116.353 793.851 125.113 791.037 136.246C788.223 125.113 779.464 116.353 768.331 113.54ZM428.283 108.676C432.187 112.406 434.253 117.101 434.477 122.756L438.657 227.512C438.881 233.167 437.063 237.917 433.198 241.757C429.334 245.602 424.376 247.64 418.327 247.884C417.942 247.9 417.556 247.908 417.178 247.908C411.641 247.908 407.017 246.255 403.31 242.95C399.348 239.42 397.258 234.827 397.03 229.172L395.113 181.163L397.994 138.497C398.62 129.202 397.478 121.363 394.61 115.098C395.424 113.272 396.522 111.568 397.903 109.99C401.496 105.893 406.38 103.725 412.562 103.477C412.995 103.461 413.42 103.45 413.841 103.45C419.819 103.45 424.635 105.193 428.283 108.676ZM153.958 248.75C161.416 246.062 167.326 240.152 170.014 232.694C172.702 240.152 178.613 246.062 186.07 248.75C178.613 251.438 172.702 257.349 170.014 264.806C167.326 257.349 161.416 251.438 153.958 248.75ZM160.676 175.362C161.313 176.063 161.966 176.743 162.659 177.393C164.202 178.841 165.862 180.202 167.633 181.485C161.069 182.292 155.229 184.877 150.188 189.194C149.763 186.912 148.902 184.87 147.623 183.079C148.272 182.835 148.913 182.595 149.531 182.343C154.375 180.344 158.09 178.01 160.676 175.358V175.362ZM153.506 198.454C158.346 193.169 164.269 190.422 171.273 190.206C171.966 190.174 172.662 190.159 173.359 190.159C178.188 190.159 183.075 190.922 188.018 192.453C193.673 194.204 199.434 195.912 205.309 197.573C209.98 198.895 214.632 199.556 219.256 199.556C220.44 199.556 221.625 199.513 222.809 199.426C228.602 199.001 232.561 197.966 234.682 196.317C236.803 194.668 237.767 192.583 237.582 190.056C237.366 187.085 235.626 184.748 232.364 183.044C229.102 181.344 225.056 180.143 220.228 179.455L209.111 177.582C197.62 175.736 187.302 173.465 178.14 170.778C173.265 169.345 168.912 167.558 165.064 165.418C165.075 164.587 165.024 163.737 164.894 162.868C164.583 160.727 163.411 157.886 159.782 155.627C163.981 151.696 166.095 146.442 165.961 140.071C165.969 140.02 165.965 139.98 165.961 139.933C165.807 137.045 164.835 134.585 163.1 132.661C161.754 131.142 159.597 129.296 156.599 128.478C157.547 126.955 158.46 125.341 159.31 123.665C161.683 119.069 163.304 113.843 164.127 108.16C164.497 105.728 164.698 103.324 164.745 100.955C167.909 98.8965 171.427 97.106 175.315 95.5909C184.751 91.9115 195.412 89.6369 207.3 88.7633C211.263 88.4721 215.076 88.3265 218.744 88.3265C226.351 88.3265 233.328 88.9522 239.668 90.1997C249.065 92.0532 256.499 95.1659 261.973 99.5419C267.446 103.922 270.437 109.53 270.937 116.361C271.472 123.641 269.918 129.469 266.282 133.841C262.642 138.217 257.553 140.641 251.017 141.122C250.084 141.188 249.14 141.224 248.184 141.224C244.728 141.224 241.124 140.775 237.373 139.882C232.584 138.741 227.575 137.651 222.345 136.616C218.634 135.884 214.781 135.514 210.783 135.514C209.146 135.514 207.489 135.577 205.809 135.699C200.607 136.081 196.73 137.151 194.169 138.906C191.607 140.661 190.422 142.802 190.607 145.328C190.835 148.449 192.787 150.625 196.463 151.845C200.138 153.069 206.136 154.423 214.459 155.902L227.15 157.886C237.586 159.66 246.794 162.045 254.783 165.044C262.767 168.043 269.127 172.285 273.865 177.763C278.599 183.24 281.31 190.662 281.995 200.02C282.821 211.314 280.818 220.684 275.99 228.134C271.157 235.583 264.105 241.293 254.838 245.256C245.567 249.222 234.544 251.674 221.77 252.611C218.787 252.831 215.793 252.937 212.786 252.937C211.192 252.937 209.599 252.902 207.997 252.843C208.969 251.765 209.547 250.336 209.547 248.762C209.547 245.673 207.324 243.135 204.262 242.729L192.744 241.198C184.858 240.148 178.616 233.907 177.566 226.02L176.035 214.502C175.63 211.44 173.091 209.217 170.002 209.217C166.913 209.217 164.375 211.44 163.97 214.502L162.439 226.02C161.876 230.266 159.802 234.036 156.78 236.771C156.107 236.197 155.454 235.607 154.828 235C150.165 230.491 147.599 225.036 147.131 218.65C146.533 210.48 148.65 203.751 153.494 198.466L153.506 198.454ZM262.13 55.7388L278.894 35.9564L280.067 61.8581C280.22 65.2267 282.333 68.2332 285.458 69.5121L309.451 79.3424L285.179 88.4642C282.499 89.4716 280.511 91.7423 279.815 94.4615C277.41 95.2958 275.108 96.4173 272.924 97.8261C271.382 95.9136 269.611 94.1388 267.592 92.5215C261.217 87.4253 252.756 83.7538 242.442 81.5933C243.508 79.0354 243.312 76.0682 241.824 73.6638L228.193 51.6068L253.189 58.4935C256.444 59.3907 259.954 58.3046 262.134 55.731L262.13 55.7388ZM312.225 121.945L308.318 179.844C307.684 189.234 309.431 196.254 313.567 200.914C317.699 205.573 323.284 207.946 330.32 208.021C337.757 207.993 343.267 205.51 346.856 200.571C350.441 195.636 351.798 188.824 350.925 180.132C350.389 174.252 349.697 169.294 348.843 165.252C347.985 161.211 347.1 157.598 346.187 154.415C345.27 151.235 344.522 148.063 343.94 144.899C343.357 141.743 343.011 138.032 342.897 133.775C342.7 124.865 344.986 118.014 349.764 113.225C354.092 108.88 359.448 106.708 365.831 106.708C366.484 106.708 367.15 106.732 367.826 106.775C375.095 107.267 380.616 110.096 384.386 115.263C388.152 120.43 389.702 127.97 389.033 137.887L385.216 194.397C384.465 205.502 382.281 214.75 378.66 222.14C375.04 229.534 370.333 235.323 364.54 239.514C358.744 243.705 352.247 246.519 345.045 247.959C339.796 249.01 334.357 249.533 328.722 249.533C326.625 249.533 324.499 249.462 322.347 249.317C314.425 248.648 306.925 247.082 299.857 244.61C293.317 242.328 287.504 239.014 282.412 234.67C282.798 234.127 283.168 233.576 283.534 233.013C289.433 223.919 291.932 212.597 290.959 199.359C290.133 188.077 286.67 178.833 280.669 171.887C277.1 167.755 272.771 164.202 267.738 161.258L268.918 143.766C270.465 142.542 271.889 141.149 273.192 139.583C278.351 133.381 280.606 125.345 279.898 115.704C279.634 112.119 278.831 108.723 277.521 105.563C277.607 105.504 277.694 105.441 277.78 105.382C281.641 102.887 285.962 101.639 290.743 101.639C291.377 101.639 292.018 101.663 292.667 101.706C298.086 102.072 302.805 103.953 306.826 107.345C310.844 110.738 312.643 115.606 312.214 121.953L312.225 121.945ZM329.989 192.35L333.897 134.451C333.905 134.31 333.913 134.172 333.92 134.03C334.042 138.733 334.444 142.94 335.109 146.533C335.742 149.972 336.569 153.462 337.557 156.898C338.411 159.877 339.253 163.316 340.055 167.11C340.835 170.789 341.48 175.445 341.98 180.942C341.98 180.97 341.984 180.997 341.988 181.025C342.629 187.416 341.822 192.217 339.587 195.29C338.43 196.88 336.215 198.997 330.351 199.032C330.257 199.032 330.17 199.025 330.08 199.021C329.867 197.175 329.808 194.971 329.989 192.347V192.35ZM105.905 146.485C105.504 149.531 104.807 152.585 103.812 155.595C103.446 156.701 103.04 157.803 102.584 158.885L101.903 160.554C99.8685 161.136 97.716 161.4 95.4965 161.27C92.4231 161.109 89.5189 160.223 86.9177 158.744C85.7135 158.047 84.5644 157.236 83.5216 156.284C83.0139 155.828 82.5338 155.347 82.0695 154.84C81.5225 154.226 81.0345 153.569 80.5623 152.904C80.3065 152.53 80.0468 152.16 79.8106 151.766C79.6493 151.487 79.484 151.2 79.3305 150.912L79.9169 149.508C80.9164 147.091 81.4949 144.608 81.6996 142.137C81.7468 141.57 81.7665 141.007 81.7783 140.453C82.9037 140.826 84.0686 141.129 85.2491 141.366C86.0795 141.531 86.9137 141.641 87.7598 141.728C88.2084 141.775 88.6452 141.83 89.1017 141.854C90.4515 141.92 91.7816 141.889 93.0921 141.779C93.6823 141.716 94.2608 141.657 94.8511 141.566C96.803 141.263 98.6919 140.748 100.506 140.047C102.533 139.268 104.445 138.265 106.22 137.053C106.417 140.165 106.318 143.325 105.913 146.493L105.905 146.485ZM85.9417 116.306C88.5665 112.874 90.3295 108.884 91.1008 104.618C94.1428 107.523 96.7676 110.781 98.9437 114.303C100.762 117.262 102.273 120.395 103.438 123.653C103.741 124.507 104.012 125.373 104.268 126.25C104.41 126.719 104.544 127.175 104.67 127.643C102.422 129.997 99.5891 131.779 96.4213 132.779C94.2648 133.468 91.9351 133.778 89.5346 133.649C86.2841 133.475 83.1949 132.503 80.4954 130.858C80.2396 130.705 79.9838 130.54 79.728 130.374C78.8032 128.23 77.5794 126.227 76.08 124.42C78.4884 123.244 80.7315 121.701 82.7463 119.824C83.923 118.734 84.9894 117.557 85.9417 116.302V116.306ZM71.4325 117.534C70.5432 117.908 69.6302 118.203 68.6936 118.443C68.0325 118.093 67.3438 117.774 66.6355 117.475C65.4431 116.983 64.2468 116.593 63.0347 116.302C62.7553 116.227 62.4641 116.164 62.1729 116.109C62.4681 115.342 62.7317 114.567 62.9678 113.772C63.5935 111.623 63.9674 109.368 64.054 107.039C64.054 106.861 64.054 106.684 64.054 106.515C64.1563 100.994 62.6255 95.6854 59.6937 91.1244C63.9359 91.333 68.1899 92.0964 72.3849 93.4541C73.6008 93.8555 74.8129 94.3041 76.0171 94.8039C77.7879 95.5319 79.4801 96.3583 81.1211 97.2595C81.8766 97.6845 82.6125 98.1174 83.3366 98.5738C83.3681 99.1366 83.376 99.7072 83.3602 100.282C83.1713 105.472 80.9755 110.277 77.1701 113.823C75.4661 115.405 73.5221 116.648 71.4365 117.53L71.4325 117.534ZM61.9093 257.16C61.6299 257.837 60.7641 258.277 59.3278 258.462C53.543 259.226 43.6852 255.145 40.1396 250.529C39.2659 249.38 38.959 248.447 39.2423 247.77L44.2007 235.799C45.4482 237.673 46.9436 239.412 48.6593 240.958C51.0795 243.154 53.7791 244.839 56.64 246.019C59.5324 247.219 62.594 247.908 65.6792 248.069L61.9132 257.16H61.9093ZM69.0832 239.841C65.9429 240.136 62.7475 239.676 59.7724 238.448C57.7615 237.617 55.8569 236.433 54.1647 234.89C51.7524 232.706 49.9698 230.011 48.9112 227.032C48.7262 226.536 48.5806 226.04 48.4468 225.524L55.2272 209.154C57.0178 212.145 59.3828 214.785 62.2398 216.957C64.1642 218.406 66.2144 219.574 68.3473 220.46C70.917 221.518 73.589 222.168 76.2925 222.42L69.0832 239.841ZM85.3987 200.398L83.3484 205.36L79.6336 214.329C76.8828 214.435 74.0967 213.963 71.4798 212.877C69.9844 212.255 68.5362 211.44 67.1864 210.417C64.3137 208.245 62.1533 205.384 60.8507 202.114C60.3588 200.866 59.9928 199.56 59.7606 198.198L65.935 183.276C67.698 186.117 69.9883 188.647 72.739 190.733C74.6555 192.185 76.7254 193.358 78.8898 194.263C79.2046 194.393 79.5234 194.495 79.8461 194.609C81.2391 195.129 82.6755 195.538 84.1315 195.813C85.1193 196.006 86.1188 196.164 87.1223 196.246L85.3947 200.402L85.3987 200.398ZM87.3269 188.014C85.926 187.86 84.5447 187.549 83.2028 187.097C81.7428 186.613 80.334 185.956 79.0118 185.106C78.5632 184.822 78.1185 184.519 77.6856 184.189C75.0884 182.229 73.0657 179.71 71.7474 176.834C71.1295 175.484 70.6691 174.044 70.3621 172.556L75.6078 159.897C75.7219 160.03 75.84 160.172 75.9541 160.302C76.6467 161.077 77.3787 161.797 78.1382 162.478C79.425 163.635 80.8063 164.65 82.2662 165.532C83.4507 166.248 84.6707 166.878 85.9457 167.401C86.0873 167.464 86.2369 167.503 86.3785 167.555C89.1057 168.637 92.0177 169.29 95.0321 169.455C96.1025 169.518 97.1611 169.51 98.2039 169.443L90.4869 188.096C89.4205 188.152 88.3619 188.12 87.3191 188.01L87.3269 188.014ZM140.264 192.583C137.761 193.834 134.892 193.995 130.524 194.22C127.388 194.389 123.464 194.597 118.746 195.314C118.502 195.345 118.246 195.369 118.01 195.392C117.687 195.428 117.372 195.455 117.085 195.503C114.917 195.648 113.87 195.644 113.099 195.636H112.686C112.654 195.629 112.634 195.632 112.607 195.636L112.32 195.652C110.222 195.806 108.565 197.565 108.569 199.698C108.569 201.933 110.387 203.735 112.623 203.731H112.78C113.276 203.747 114.264 203.77 115.901 203.696C115.912 203.723 115.916 203.763 115.924 203.802C115.975 204.542 114.618 205.254 113.465 205.722C110.281 207.001 105.685 207.422 100.179 206.934C97.169 206.659 94.737 205.711 92.7576 204.058L110.151 162.018C111.257 159.357 112.139 156.662 112.815 153.947C113 153.183 113.177 152.424 113.335 151.664C114.582 145.576 114.807 139.445 114.102 133.471C113.957 132.193 113.76 130.929 113.524 129.674C113.508 129.595 113.484 129.517 113.473 129.438C115.263 128.127 117.089 126.813 118.978 125.534L119.486 125.192C124.723 121.63 131.89 116.739 137.084 111.973C142.833 106.842 149.224 100.242 153.1 90.058C153.352 89.3811 153.876 87.9408 154.411 86.6776C154.466 86.8036 154.513 86.9295 154.568 87.0633C155.206 88.602 155.745 90.7978 156.194 93.5918C156.855 97.8183 156.827 102.301 156.115 106.944C155.414 111.777 154.076 116.149 152.113 119.954C150.539 123.035 148.807 125.817 146.942 128.269C146.717 128.549 146.497 128.836 146.273 129.088C146.237 129.131 146.198 129.182 146.163 129.221C145.781 129.678 145.332 130.154 144.663 130.796C142.782 132.566 140.535 134.239 137.989 135.789C136.084 136.938 135.475 139.414 136.604 141.322C137.745 143.231 140.22 143.868 142.137 142.739C145.053 141.031 147.63 139.162 149.799 137.19C153.95 135.12 155.717 136.529 157.071 138.048C157.398 138.418 157.783 139.008 157.874 140.299C157.968 146.505 155.033 150.574 148.61 153.104H148.591C148.591 153.104 148.583 153.116 148.571 153.116H148.559L148.551 153.128H148.539C148.539 153.128 148.539 153.128 148.532 153.128V153.136H148.512H148.5C148.5 153.148 148.492 153.148 148.492 153.148H148.48L148.473 153.159H148.453C148.453 153.159 148.453 153.171 148.445 153.171H148.437C148.437 153.171 148.417 153.183 148.41 153.183C148.402 153.183 148.402 153.195 148.39 153.195C148.378 153.195 148.37 153.207 148.37 153.207C148.205 153.285 148.044 153.372 147.89 153.47C145.742 154.859 141.35 156.933 132.669 158.909C132.661 158.921 132.649 158.921 132.641 158.921C130.697 159.361 129.399 161.152 129.501 163.084C129.513 163.312 129.544 163.537 129.595 163.773C130.087 165.953 132.267 167.318 134.436 166.819C141.783 165.15 147.249 163.249 151.086 161.026C152.29 161.187 153.455 161.514 154.517 161.97C155.989 162.643 156.784 163.344 156.894 164.06C157.114 165.579 157.795 170.191 146.466 174.858C144.132 175.815 141.444 176.708 138.489 177.511C138.135 177.578 137.796 177.668 137.442 177.755C137.159 177.829 136.868 177.892 136.553 177.959C134.05 178.498 131.059 179.163 130.225 179.423C128.415 179.974 127.289 181.686 127.388 183.488C127.403 183.803 127.462 184.126 127.557 184.448C128.194 186.581 130.453 187.793 132.586 187.168C132.909 187.073 134.715 186.64 138.241 185.877C138.438 185.838 138.631 185.798 138.827 185.747C138.981 185.857 139.146 185.975 139.311 186.097C141.031 187.368 141.976 188.943 142.294 191.032C142.306 191.04 142.31 191.15 142.31 191.158C142.31 191.166 142.054 191.776 140.358 192.559C140.331 192.579 140.299 192.59 140.264 192.602V192.583Z" fill="#1C2149"/>
<path d="M626.245 262.382L640.058 247.609L619.882 249.037C616.765 249.258 613.775 247.632 612.263 244.897L602.48 227.193L597.605 246.822C596.853 249.856 594.382 252.197 591.316 252.788L571.455 256.621L588.617 267.324C591.269 268.977 592.733 272.051 592.347 275.152L589.856 295.225L605.341 282.211C607.734 280.2 611.106 279.756 613.936 281.082L632.258 289.657L624.663 270.909C623.491 268.013 624.112 264.668 626.245 262.386V262.382Z" fill="#FFDA42"/>
<path d="M49.5287 91.6987C48.2734 91.8955 47.0416 92.1473 45.8099 92.4425C42.6184 93.2177 39.5017 94.2999 36.5385 95.6851C32.6229 97.5071 28.9396 99.8486 25.6104 102.647C27.2317 102.997 28.8412 103.493 30.4271 104.15C33.166 105.279 35.6295 106.81 37.7742 108.644C41.0483 111.434 43.5747 114.909 45.2275 118.765C47.687 117.388 50.3551 116.443 53.1373 115.971C53.2042 115.959 53.275 115.944 53.3537 115.932C53.3026 115.904 53.2593 115.869 53.2121 115.841C54.7783 113.158 55.7306 110.061 55.8526 106.751C56.0415 101.56 54.1841 96.606 50.6502 92.8006C50.2921 92.4149 49.9183 92.049 49.5326 91.7027L49.5287 91.6987Z" fill="#FCE6ED"/>
<path d="M23.7572 139.744C18.5508 137.599 12.951 137.879 8.20118 140.059C8.18937 141.857 8.28382 143.671 8.48845 145.462C8.81901 148.5 9.42504 151.522 10.3341 154.47C10.4875 154.965 10.7433 155.446 11.0739 155.902C13.1005 158.692 18.1573 160.408 24.3435 158.724C25.7366 158.342 28.7352 157.303 30.9468 155.001C32.3596 153.521 33.4614 151.514 33.6031 148.838C32.9735 147.614 32.2179 146.45 31.3403 145.379C29.3727 142.983 26.807 141.015 23.7532 139.744H23.7572Z" fill="#FCE6ED"/>
<path d="M27.2946 111.721C24.3431 110.494 21.2618 110.065 18.2907 110.312C18.0704 110.6 17.8579 110.891 17.6454 111.178C15.6738 113.874 13.9502 116.813 12.5296 119.973C12.3171 120.43 12.1124 120.894 11.9196 121.359C10.6249 124.503 9.66077 127.75 9.04688 131.055C14.7569 129.493 21.01 129.733 26.8932 132.169C29.1677 133.117 31.2495 134.329 33.1266 135.762C33.2564 135.014 33.4217 134.282 33.6303 133.55C33.8939 132.598 34.2127 131.669 34.5865 130.752C35.3815 128.82 36.4046 127.057 37.597 125.459C37.8921 125.058 38.207 124.676 38.5218 124.294C36.9359 118.813 32.9652 114.071 27.2906 111.725L27.2946 111.721Z" fill="#EF689B"/>
<path d="M83.3481 100.286C83.3678 99.7112 83.356 99.1366 83.3245 98.5778C82.5965 98.1213 81.8645 97.6885 81.109 97.2634C79.468 96.3623 77.7719 95.5319 76.005 94.8079C74.8008 94.3081 73.5927 93.8595 72.3728 93.4581C68.1778 92.1004 63.9238 91.337 59.6816 91.1284C62.6134 95.6894 64.1442 100.994 64.0419 106.519C64.0419 106.688 64.0419 106.865 64.0419 107.043C63.9592 109.372 63.5854 111.623 62.9558 113.776C62.7196 114.571 62.456 115.346 62.1608 116.113C62.452 116.168 62.7393 116.231 63.0226 116.306C64.2347 116.597 65.431 116.987 66.6234 117.479C67.3317 117.778 68.0204 118.097 68.6815 118.447C69.6181 118.211 70.5311 117.912 71.4204 117.538C73.5101 116.656 75.4501 115.413 77.1541 113.831C80.9594 110.285 83.1553 105.48 83.3442 100.29L83.3481 100.286Z" fill="#EF689B"/>
<path d="M62.2276 216.957C59.3745 214.785 57.0055 212.144 55.215 209.153L48.4346 225.524C48.5723 226.039 48.7179 226.539 48.8989 227.031C49.9575 230.01 51.7441 232.702 54.1525 234.89C55.8446 236.432 57.7493 237.613 59.7602 238.447C62.7313 239.675 65.9306 240.135 69.0709 239.84L76.2803 222.419C73.5768 222.167 70.9008 221.518 68.335 220.459C66.2021 219.574 64.1519 218.409 62.2276 216.957Z" fill="#FCE6ED"/>
<path d="M48.6471 240.958C46.9313 239.407 45.4359 237.668 44.1885 235.799L39.2301 247.77C38.9507 248.447 39.2576 249.379 40.1273 250.528C43.6769 255.144 53.5346 259.225 59.3155 258.462C60.7479 258.277 61.6137 257.836 61.897 257.159L65.663 248.069C62.5778 247.908 59.5162 247.219 56.6238 246.019C53.7629 244.838 51.0633 243.15 48.6431 240.958H48.6471Z" fill="#EF689B"/>
<path d="M79.8384 194.601C79.5157 194.491 79.193 194.389 78.8821 194.255C76.7177 193.354 74.6478 192.177 72.7313 190.725C69.9806 188.635 67.6903 186.109 65.9273 183.268L59.7529 198.19C59.9851 199.552 60.3511 200.858 60.843 202.106C62.1456 205.38 64.306 208.241 67.1787 210.409C68.5285 211.436 69.9767 212.247 71.4721 212.868C74.0929 213.955 76.8751 214.431 79.6259 214.321L83.3407 205.352L85.391 200.39L87.1185 196.234C86.1151 196.148 85.1194 195.994 84.1278 195.801C82.6678 195.522 81.2354 195.117 79.8423 194.597L79.8384 194.601Z" fill="#EF689B"/>
<path d="M76.0762 124.424C77.5755 126.234 78.7993 128.233 79.7241 130.378C79.9799 130.543 80.2357 130.705 80.4915 130.862C83.1911 132.507 86.2763 133.479 89.5307 133.652C91.9312 133.782 94.2569 133.471 96.4174 132.783C99.5892 131.783 102.419 130 104.666 127.647C104.544 127.179 104.41 126.722 104.264 126.254C104.008 125.376 103.737 124.511 103.434 123.657C102.273 120.398 100.758 117.262 98.9399 114.307C96.7637 110.785 94.1389 107.522 91.097 104.622C90.3257 108.884 88.5627 112.874 85.9379 116.31C84.9855 117.565 83.923 118.742 82.7425 119.832C80.7276 121.709 78.4845 123.251 76.0762 124.428V124.424Z" fill="#FCE6ED"/>
<path d="M94.835 141.554C94.2447 141.645 93.6662 141.704 93.076 141.767C91.7655 141.877 90.4354 141.908 89.0856 141.842C88.6292 141.818 88.1923 141.759 87.7437 141.716C86.8976 141.633 86.0634 141.519 85.233 141.354C84.0525 141.121 82.8916 140.814 81.7622 140.441C81.7504 140.995 81.7346 141.558 81.6835 142.125C81.4788 144.596 80.9003 147.079 79.9008 149.496L79.3145 150.9C79.4679 151.188 79.6332 151.475 79.7946 151.754C80.0346 152.148 80.2904 152.518 80.5462 152.892C81.0184 153.557 81.5064 154.214 82.0534 154.828C82.5138 155.335 82.9978 155.816 83.5055 156.272C84.5444 157.224 85.6974 158.035 86.9016 158.732C89.5028 160.215 92.407 161.097 95.4804 161.258C97.7038 161.388 99.8524 161.124 101.887 160.542L102.568 158.873C103.024 157.791 103.43 156.693 103.796 155.583C104.791 152.573 105.488 149.519 105.889 146.473C106.294 143.309 106.393 140.149 106.196 137.033C104.421 138.245 102.509 139.248 100.482 140.027C98.6719 140.728 96.779 141.243 94.8271 141.546L94.835 141.554Z" fill="#EF689B"/>
<path d="M95.0284 169.459C92.014 169.294 89.1019 168.637 86.3748 167.558C86.2331 167.507 86.0836 167.464 85.9419 167.405C84.6669 166.878 83.447 166.252 82.2625 165.536C80.8025 164.654 79.4212 163.639 78.1344 162.482C77.3749 161.801 76.6469 161.077 75.9504 160.306C75.8362 160.172 75.7182 160.03 75.6041 159.9L70.3584 172.56C70.6653 174.048 71.1258 175.484 71.7436 176.838C73.0658 179.714 75.0885 182.237 77.6819 184.193C78.1147 184.527 78.5555 184.826 79.008 185.11C80.3303 185.96 81.7391 186.617 83.1991 187.101C84.537 187.553 85.9183 187.864 87.3232 188.018C88.366 188.132 89.4285 188.163 90.4911 188.104L98.208 169.451C97.1652 169.518 96.1066 169.522 95.0362 169.463L95.0284 169.459Z" fill="#FCE6ED"/>
<path d="M142.302 191.138C142.302 191.138 142.295 191.02 142.287 191.012C141.968 188.923 141.023 187.352 139.304 186.077C139.139 185.959 138.973 185.837 138.82 185.727C138.623 185.778 138.43 185.818 138.233 185.857C134.704 186.621 132.897 187.049 132.578 187.148C130.446 187.777 128.187 186.562 127.549 184.429C127.455 184.106 127.396 183.783 127.38 183.468C127.286 181.666 128.407 179.954 130.217 179.403C131.056 179.14 134.042 178.479 136.545 177.939C136.856 177.873 137.151 177.81 137.435 177.735C137.785 177.648 138.127 177.558 138.481 177.491C141.433 176.692 144.124 175.795 146.458 174.838C157.788 170.171 157.107 165.559 156.886 164.04C156.78 163.324 155.981 162.623 154.51 161.951C153.447 161.494 152.282 161.171 151.078 161.006C147.241 163.23 141.775 165.13 134.428 166.799C132.26 167.299 130.08 165.933 129.588 163.753C129.537 163.517 129.505 163.292 129.493 163.064C129.391 161.132 130.69 159.342 132.634 158.901C132.645 158.901 132.653 158.901 132.661 158.889C141.346 156.913 145.734 154.84 147.883 153.45C148.036 153.352 148.197 153.265 148.363 153.187C148.363 153.187 148.371 153.175 148.382 153.175C148.394 153.175 148.39 153.163 148.402 153.163C148.414 153.163 148.422 153.163 148.43 153.151H148.437L148.445 153.14H148.453H148.465L148.473 153.128H148.485C148.485 153.128 148.497 153.128 148.493 153.116H148.504C148.504 153.116 148.504 153.116 148.516 153.116H148.524V153.104H148.544C148.544 153.104 148.552 153.104 148.552 153.092H148.563C148.563 153.092 148.571 153.092 148.583 153.081H148.603C155.025 150.55 157.961 146.481 157.866 140.275C157.776 138.985 157.39 138.394 157.064 138.024C155.706 136.505 153.943 135.097 149.791 137.166C147.623 139.142 145.041 141.011 142.129 142.715C140.213 143.845 137.738 143.207 136.596 141.298C135.467 139.39 136.077 136.915 137.982 135.766C140.528 134.215 142.775 132.543 144.656 130.772C145.325 130.134 145.773 129.654 146.155 129.198C146.19 129.158 146.23 129.103 146.265 129.064C146.49 128.816 146.71 128.525 146.934 128.245C148.8 125.794 150.531 123.011 152.105 119.93C154.069 116.129 155.407 111.757 156.107 106.92C156.82 102.277 156.847 97.7945 156.186 93.568C155.741 90.774 155.198 88.5781 154.561 87.0395C154.506 86.9057 154.458 86.7797 154.403 86.6538C153.868 87.917 153.341 89.3612 153.093 90.0342C149.217 100.219 142.826 106.818 137.076 111.949C131.882 116.715 124.72 121.607 119.478 125.168L118.97 125.51C117.082 126.789 115.252 128.1 113.465 129.414C113.481 129.493 113.504 129.571 113.516 129.65C113.752 130.906 113.949 132.169 114.095 133.448C114.799 139.421 114.571 145.552 113.327 151.64C113.17 152.4 112.993 153.159 112.808 153.923C112.131 156.638 111.25 159.334 110.144 161.994L92.75 204.034C94.7255 205.687 97.1614 206.635 100.172 206.911C105.677 207.399 110.27 206.974 113.457 205.699C114.61 205.23 115.964 204.518 115.917 203.778C115.905 203.739 115.901 203.699 115.893 203.672C114.256 203.751 113.264 203.723 112.772 203.711H112.615C110.38 203.711 108.566 201.909 108.562 199.674C108.558 197.537 110.215 195.778 112.312 195.628L112.599 195.613C112.631 195.613 112.65 195.613 112.678 195.616H113.091C113.863 195.624 114.909 195.624 117.078 195.479C117.361 195.435 117.676 195.408 118.002 195.369C118.238 195.345 118.494 195.321 118.738 195.29C123.457 194.574 127.38 194.365 130.516 194.196C134.885 193.972 137.753 193.81 140.256 192.559C140.295 192.547 140.323 192.535 140.351 192.516C142.051 191.732 142.302 191.126 142.302 191.115V191.138Z" fill="#E9F6FB"/>
</g>
<defs>
<clipPath id="clip0_488_1908">
<rect width="838" height="305.524" fill="white"/>
</clipPath>
</defs>
</svg>
